<svg width="78" height="93" viewBox="0 0 78 93" fill="none" xmlns="http://www.w3.org/2000/svg">
<path d="M22.2857 14.5715C25.2857 14.5715 31.2857 16.2069 31.2857 22.7482C31.2857 29.2896 31.2857 41.4512 31.2857 46.7144" stroke="url(#paint0_linear_376_213)" stroke-width="5" stroke-linecap="round" stroke-linejoin="round"/>
<path d="M3 12.2391L5.5 12.2391V12.2391H3ZM5.5 12.2391C5.5 8.6169 8.59611 5.5 12.6429 5.5V0.5C6.0384 0.5 0.500001 5.65607 0.500001 12.2391H5.5ZM12.6429 5.5C16.6896 5.5 19.7857 8.6169 19.7857 12.2391H24.7857C24.7857 5.65607 19.2473 0.5 12.6429 0.5V5.5ZM3 12.2391C0.500001 12.2391 0.500001 12.2393 0.500001 12.2396C0.500001 12.2399 0.500001 12.2404 0.500001 12.241C0.500001 12.2423 0.500001 12.2442 0.500001 12.2468C0.500001 12.252 0.500001 12.2597 0.500001 12.2699C0.500001 12.2903 0.500001 12.3208 0.500001 12.3611C0.500001 12.4418 0.500001 12.5615 0.500001 12.7181C0.500001 13.0314 0.500001 13.4921 0.500001 14.082C0.500001 15.2617 0.500001 16.9579 0.500001 19.0241C0.500001 23.1564 0.500001 28.7684 0.500001 34.6872C0.500001 46.5248 0.500001 59.5895 0.500001 64.4977L5.5 64.4977C5.5 59.5895 5.5 46.5248 5.5 34.6872C5.5 28.7684 5.5 23.1564 5.5 19.0241C5.5 16.9579 5.5 15.2617 5.5 14.082C5.5 13.4921 5.5 13.0314 5.5 12.7181C5.5 12.5615 5.5 12.4418 5.5 12.3611C5.5 12.3208 5.5 12.2903 5.5 12.2699C5.5 12.2597 5.5 12.252 5.5 12.2468C5.5 12.2443 5.5 12.2423 5.5 12.241C5.5 12.2404 5.5 12.2399 5.5 12.2396C5.5 12.2393 5.5 12.2391 3 12.2391ZM0.500001 64.4977C0.500002 69.8883 2.22006 75.4707 4.34491 79.6961C5.41039 81.8149 6.62821 83.6944 7.87611 85.0867C8.49877 85.7814 9.18185 86.4143 9.91285 86.8902C10.62 87.3506 11.5596 87.7857 12.6429 87.7857V82.7857C12.8975 82.7857 12.9142 82.878 12.6408 82.7C12.3913 82.5375 12.0361 82.2367 11.5994 81.7494C10.7285 80.7778 9.7428 79.3009 8.8119 77.4498C6.944 73.7353 5.5 68.9237 5.5 64.4977L0.500001 64.4977ZM12.6429 87.7857C14.5022 87.7857 16.1354 86.5956 17.305 85.4401C18.587 84.1736 19.8297 82.4361 20.9145 80.3965C23.0883 76.3096 24.7857 70.7121 24.7857 64.4977H19.7857C19.7857 69.8323 18.3191 74.6287 16.5001 78.0486C15.5885 79.7624 14.6278 81.0565 13.7909 81.8832C12.8417 82.821 12.4409 82.7857 12.6429 82.7857V87.7857ZM24.7857 64.4977C24.7857 64.4752 24.7857 64.4525 24.7857 64.4297C24.7857 64.407 24.7857 64.3841 24.7857 64.3611C24.7857 64.3381 24.7857 64.315 24.7857 64.2917C24.7857 64.2685 24.7857 64.2452 24.7857 64.2218C24.7857 64.1983 24.7857 64.1748 24.7857 64.1511C24.7857 64.1275 24.7857 64.1037 24.7857 64.0798C24.7857 64.056 24.7857 64.032 24.7857 64.0079C24.7857 63.9838 24.7857 63.9596 24.7857 63.9353C24.7857 63.911 24.7857 63.8866 24.7857 63.8621C24.7857 63.8376 24.7857 63.8129 24.7857 63.7882C24.7857 63.7635 24.7857 63.7386 24.7857 63.7137C24.7857 63.6888 24.7857 63.6637 24.7857 63.6386C24.7857 63.6134 24.7857 63.5881 24.7857 63.5628C24.7857 63.5374 24.7857 63.512 24.7857 63.4864C24.7857 63.4608 24.7857 63.4352 24.7857 63.4094C24.7857 63.3836 24.7857 63.3577 24.7857 63.3317C24.7857 63.3058 24.7857 63.2797 24.7857 63.2535C24.7857 63.2273 24.7857 63.201 24.7857 63.1746C24.7857 63.1482 24.7857 63.1217 24.7857 63.0951C24.7857 63.0685 24.7857 63.0418 24.7857 63.015C24.7857 62.9882 24.7857 62.9613 24.7857 62.9343C24.7857 62.9073 24.7857 62.8802 24.7857 62.853C24.7857 62.8258 24.7857 62.7985 24.7857 62.7711C24.7857 62.7438 24.7857 62.7163 24.7857 62.6887C24.7857 62.6611 24.7857 62.6334 24.7857 62.6056C24.7857 62.5778 24.7857 62.5499 24.7857 62.5219C24.7857 62.4939 24.7857 62.4658 24.7857 62.4376C24.7857 62.4095 24.7857 62.3812 24.7857 62.3528C24.7857 62.3244 24.7857 62.2959 24.7857 62.2674C24.7857 62.2388 24.7857 62.2101 24.7857 62.1814C24.7857 62.1526 24.7857 62.1238 24.7857 62.0948C24.7857 62.0658 24.7857 62.0368 24.7857 62.0077C24.7857 61.9785 24.7857 61.9493 24.7857 61.9199C24.7857 61.8906 24.7857 61.8612 24.7857 61.8317C24.7857 61.8022 24.7857 61.7725 24.7857 61.7428C24.7857 61.7131 24.7857 61.6833 24.7857 61.6534C24.7857 61.6235 24.7857 61.5936 24.7857 61.5635C24.7857 61.5334 24.7857 61.5032 24.7857 61.473C24.7857 61.4427 24.7857 61.4124 24.7857 61.3819C24.7857 61.3515 24.7857 61.321 24.7857 61.2903C24.7857 61.2597 24.7857 61.229 24.7857 61.1982C24.7857 61.1674 24.7857 61.1365 24.7857 61.1055C24.7857 61.0745 24.7857 61.0435 24.7857 61.0123C24.7857 60.9811 24.7857 60.9499 24.7857 60.9186C24.7857 60.8872 24.7857 60.8558 24.7857 60.8243C24.7857 60.7928 24.7857 60.7612 24.7857 60.7295C24.7857 60.6978 24.7857 60.666 24.7857 60.6342C24.7857 60.6023 24.7857 60.5703 24.7857 60.5383C24.7857 60.5063 24.7857 60.4741 24.7857 60.4419C24.7857 60.4097 24.7857 60.3774 24.7857 60.3451C24.7857 60.3127 24.7857 60.2802 24.7857 60.2477C24.7857 60.2151 24.7857 60.1825 24.7857 60.1498C24.7857 60.117 24.7857 60.0842 24.7857 60.0514C24.7857 60.0185 24.7857 59.9855 24.7857 59.9525C24.7857 59.9194 24.7857 59.8863 24.7857 59.853C24.7857 59.8198 24.7857 59.7865 24.7857 59.7531C24.7857 59.7198 24.7857 59.6863 24.7857 59.6528C24.7857 59.6192 24.7857 59.5856 24.7857 59.5519C24.7857 59.5182 24.7857 59.4844 24.7857 59.4505C24.7857 59.4166 24.7857 59.3827 24.7857 59.3486C24.7857 59.3146 24.7857 59.2805 24.7857 59.2463C24.7857 59.2121 24.7857 59.1779 24.7857 59.1435C24.7857 59.1092 24.7857 59.0747 24.7857 59.0402C24.7857 59.0057 24.7857 58.9711 24.7857 58.9365C24.7857 58.9018 24.7857 58.8671 24.7857 58.8322C24.7857 58.7974 24.7857 58.7625 24.7857 58.7276C24.7857 58.6926 24.7857 58.6575 24.7857 58.6224C24.7857 58.5873 24.7857 58.5521 24.7857 58.5168C24.7857 58.4815 24.7857 58.4462 24.7857 58.4107C24.7857 58.3753 24.7857 58.3398 24.7857 58.3042C24.7857 58.2687 24.7857 58.233 24.7857 58.1973C24.7857 58.1615 24.7857 58.1257 24.7857 58.0899C24.7857 58.054 24.7857 58.018 24.7857 57.982C24.7857 57.946 24.7857 57.9099 24.7857 57.8737C24.7857 57.8376 24.7857 57.8013 24.7857 57.765C24.7857 57.7287 24.7857 57.6923 24.7857 57.6558C24.7857 57.6194 24.7857 57.5829 24.7857 57.5463C24.7857 57.5097 24.7857 57.473 24.7857 57.4362C24.7857 57.3995 24.7857 57.3627 24.7857 57.3258C24.7857 57.2889 24.7857 57.252 24.7857 57.2149C24.7857 57.1779 24.7857 57.1408 24.7857 57.1037C24.7857 57.0665 24.7857 57.0293 24.7857 56.992C24.7857 56.9547 24.7857 56.9173 24.7857 56.8799C24.7857 56.8424 24.7857 56.8049 24.7857 56.7674C24.7857 56.7298 24.7857 56.6921 24.7857 56.6544C24.7857 56.6167 24.7857 56.579 24.7857 56.5411C24.7857 56.5033 24.7857 56.4654 24.7857 56.4274C24.7857 56.3894 24.7857 56.3514 24.7857 56.3133C24.7857 56.2752 24.7857 56.237 24.7857 56.1988C24.7857 56.1605 24.7857 56.1222 24.7857 56.0839C24.7857 56.0455 24.7857 56.0071 24.7857 55.9686C24.7857 55.9301 24.7857 55.8916 24.7857 55.8529C24.7857 55.8143 24.7857 55.7756 24.7857 55.7369C24.7857 55.6982 24.7857 55.6593 24.7857 55.6205C24.7857 55.5816 24.7857 55.5427 24.7857 55.5037C24.7857 55.4647 24.7857 55.4256 24.7857 55.3865C24.7857 55.3474 24.7857 55.3082 24.7857 55.269C24.7857 55.2297 24.7857 55.1904 24.7857 55.1511C24.7857 55.1117 24.7857 55.0723 24.7857 55.0328C24.7857 54.9933 24.7857 54.9538 24.7857 54.9142C24.7857 54.8746 24.7857 54.8349 24.7857 54.7952C24.7857 54.7555 24.7857 54.7157 24.7857 54.6759C24.7857 54.6361 24.7857 54.5962 24.7857 54.5562C24.7857 54.5163 24.7857 54.4763 24.7857 54.4362C24.7857 54.3961 24.7857 54.356 24.7857 54.3158C24.7857 54.2757 24.7857 54.2354 24.7857 54.1951C24.7857 54.1549 24.7857 54.1145 24.7857 54.0741C24.7857 54.0337 24.7857 53.9933 24.7857 53.9527C24.7857 53.9122 24.7857 53.8717 24.7857 53.831C24.7857 53.7904 24.7857 53.7497 24.7857 53.709C24.7857 53.6683 24.7857 53.6275 24.7857 53.5867C24.7857 53.5458 24.7857 53.5049 24.7857 53.464C24.7857 53.423 24.7857 53.382 24.7857 53.341C24.7857 53.2999 24.7857 53.2588 24.7857 53.2177C24.7857 53.1765 24.7857 53.1353 24.7857 53.0941C24.7857 53.0528 24.7857 53.0115 24.7857 52.9701C24.7857 52.9288 24.7857 52.8874 24.7857 52.8459C24.7857 52.8045 24.7857 52.7629 24.7857 52.7214C24.7857 52.6798 24.7857 52.6382 24.7857 52.5966C24.7857 52.5549 24.7857 52.5132 24.7857 52.4714C24.7857 52.4297 24.7857 52.3879 24.7857 52.346C24.7857 52.3042 24.7857 52.2623 24.7857 52.2203C24.7857 52.1784 24.7857 52.1364 24.7857 52.0943C24.7857 52.0523 24.7857 52.0102 24.7857 51.968C24.7857 51.9259 24.7857 51.8837 24.7857 51.8415C24.7857 51.7992 24.7857 51.757 24.7857 51.7146C24.7857 51.6723 24.7857 51.6299 24.7857 51.5875C24.7857 51.5451 24.7857 51.5027 24.7857 51.4601C24.7857 51.4176 24.7857 51.3751 24.7857 51.3325C24.7857 51.2899 24.7857 51.2473 24.7857 51.2046C24.7857 51.1619 24.7857 51.1192 24.7857 51.0764C24.7857 51.0336 24.7857 50.9908 24.7857 50.948C24.7857 50.9051 24.7857 50.8622 24.7857 50.8193C24.7857 50.7764 24.7857 50.7334 24.7857 50.6904C24.7857 50.6473 24.7857 50.6043 24.7857 50.5612C24.7857 50.5181 24.7857 50.4749 24.7857 50.4317C24.7857 50.3886 24.7857 50.3453 24.7857 50.3021C24.7857 50.2588 24.7857 50.2155 24.7857 50.1721C24.7857 50.1288 24.7857 50.0854 24.7857 50.042C24.7857 49.9986 24.7857 49.9551 24.7857 49.9116C24.7857 49.8681 24.7857 49.8246 24.7857 49.781C24.7857 49.7374 24.7857 49.6938 24.7857 49.6502C24.7857 49.6065 24.7857 49.5628 24.7857 49.5191C24.7857 49.4754 24.7857 49.4316 24.7857 49.3878C24.7857 49.344 24.7857 49.3002 24.7857 49.2563C24.7857 49.2124 24.7857 49.1685 24.7857 49.1246C24.7857 49.0806 24.7857 49.0367 24.7857 48.9926C24.7857 48.9486 24.7857 48.9046 24.7857 48.8605C24.7857 48.8164 24.7857 48.7723 24.7857 48.7282C24.7857 48.684 24.7857 48.6398 24.7857 48.5956C24.7857 48.5514 24.7857 48.5072 24.7857 48.4629C24.7857 48.4186 24.7857 48.3743 24.7857 48.3299C24.7857 48.2856 24.7857 48.2412 24.7857 48.1968C24.7857 48.1524 24.7857 48.1079 24.7857 48.0635C24.7857 48.019 24.7857 47.9745 24.7857 47.93C24.7857 47.8854 24.7857 47.8409 24.7857 47.7963C24.7857 47.7517 24.7857 47.707 24.7857 47.6624C24.7857 47.6177 24.7857 47.5731 24.7857 47.5283C24.7857 47.4836 24.7857 47.4389 24.7857 47.3941C24.7857 47.3494 24.7857 47.3046 24.7857 47.2597C24.7857 47.2149 24.7857 47.17 24.7857 47.1252C24.7857 47.0803 24.7857 47.0354 24.7857 46.9904C24.7857 46.9455 24.7857 46.9005 24.7857 46.8555C24.7857 46.8106 24.7857 46.7655 24.7857 46.7205C24.7857 46.6755 24.7857 46.6304 24.7857 46.5853C24.7857 46.5402 24.7857 46.4951 24.7857 46.4499C24.7857 46.4048 24.7857 46.3596 24.7857 46.3144C24.7857 46.2692 24.7857 46.224 24.7857 46.1788C24.7857 46.1336 24.7857 46.0883 24.7857 46.043C24.7857 45.9977 24.7857 45.9524 24.7857 45.9071C24.7857 45.8617 24.7857 45.8164 24.7857 45.771C24.7857 45.7256 24.7857 45.6802 24.7857 45.6348C24.7857 45.5894 24.7857 45.5439 24.7857 45.4985C24.7857 45.453 24.7857 45.4075 24.7857 45.362C24.7857 45.3165 24.7857 45.271 24.7857 45.2254C24.7857 45.1799 24.7857 45.1343 24.7857 45.0887C24.7857 45.0431 24.7857 44.9975 24.7857 44.9519C24.7857 44.9063 24.7857 44.8606 24.7857 44.815C24.7857 44.7693 24.7857 44.7236 24.7857 44.6779C24.7857 44.6322 24.7857 44.5865 24.7857 44.5408C24.7857 44.495 24.7857 44.4493 24.7857 44.4035C24.7857 44.3577 24.7857 44.312 24.7857 44.2661C24.7857 44.2203 24.7857 44.1745 24.7857 44.1287C24.7857 44.0828 24.7857 44.037 24.7857 43.9911C24.7857 43.9453 24.7857 43.8994 24.7857 43.8535C24.7857 43.8076 24.7857 43.7617 24.7857 43.7157C24.7857 43.6698 24.7857 43.6239 24.7857 43.5779C24.7857 43.532 24.7857 43.486 24.7857 43.44C24.7857 43.394 24.7857 43.348 24.7857 43.302C24.7857 43.256 24.7857 43.21 24.7857 43.1639C24.7857 43.1179 24.7857 43.0719 24.7857 43.0258C24.7857 42.9797 24.7857 42.9337 24.7857 42.8876C24.7857 42.8415 24.7857 42.7954 24.7857 42.7493C24.7857 42.7032 24.7857 42.6571 24.7857 42.611C24.7857 42.5648 24.7857 42.5187 24.7857 42.4726C24.7857 42.4264 24.7857 42.3803 24.7857 42.3341C24.7857 42.2879 24.7857 42.2418 24.7857 42.1956C24.7857 42.1494 24.7857 42.1032 24.7857 42.057C24.7857 42.0108 24.7857 41.9646 24.7857 41.9184C24.7857 41.8722 24.7857 41.826 24.7857 41.7797C24.7857 41.7335 24.7857 41.6873 24.7857 41.641C24.7857 41.5948 24.7857 41.5485 24.7857 41.5023C24.7857 41.456 24.7857 41.4097 24.7857 41.3635C24.7857 41.3172 24.7857 41.2709 24.7857 41.2247C24.7857 41.1784 24.7857 41.1321 24.7857 41.0858C24.7857 41.0395 24.7857 40.9932 24.7857 40.9469C24.7857 40.9006 24.7857 40.8543 24.7857 40.808C24.7857 40.7617 24.7857 40.7154 24.7857 40.6691C24.7857 40.6228 24.7857 40.5765 24.7857 40.5302C24.7857 40.4839 24.7857 40.4375 24.7857 40.3912C24.7857 40.3449 24.7857 40.2986 24.7857 40.2523C24.7857 40.2059 24.7857 40.1596 24.7857 40.1133C24.7857 40.067 24.7857 40.0206 24.7857 39.9743C24.7857 39.928 24.7857 39.8817 24.7857 39.8353C24.7857 39.789 24.7857 39.7427 24.7857 39.6964C24.7857 39.65 24.7857 39.6037 24.7857 39.5574C24.7857 39.5111 24.7857 39.4647 24.7857 39.4184C24.7857 39.3721 24.7857 39.3258 24.7857 39.2795C24.7857 39.2331 24.7857 39.1868 24.7857 39.1405C24.7857 39.0942 24.7857 39.0479 24.7857 39.0016C24.7857 38.9553 24.7857 38.909 24.7857 38.8627C24.7857 38.8164 24.7857 38.7701 24.7857 38.7238C24.7857 38.6775 24.7857 38.6312 24.7857 38.5849C24.7857 38.5386 24.7857 38.4924 24.7857 38.4461C24.7857 38.3998 24.7857 38.3536 24.7857 38.3073C24.7857 38.261 24.7857 38.2148 24.7857 38.1685C24.7857 38.1223 24.7857 38.076 24.7857 38.0298C24.7857 37.9836 24.7857 37.9374 24.7857 37.8911C24.7857 37.8449 24.7857 37.7987 24.7857 37.7525C24.7857 37.7063 24.7857 37.6601 24.7857 37.6139C24.7857 37.5677 24.7857 37.5215 24.7857 37.4754C24.7857 37.4292 24.7857 37.383 24.7857 37.3369C24.7857 37.2907 24.7857 37.2446 24.7857 37.1985C24.7857 37.1523 24.7857 37.1062 24.7857 37.0601C24.7857 37.014 24.7857 36.9679 24.7857 36.9218C24.7857 36.8757 24.7857 36.8296 24.7857 36.7835C24.7857 36.7375 24.7857 36.6914 24.7857 36.6454C24.7857 36.5993 24.7857 36.5533 24.7857 36.5073C24.7857 36.4613 24.7857 36.4153 24.7857 36.3693C24.7857 36.3233 24.7857 36.2773 24.7857 36.2313C24.7857 36.1854 24.7857 36.1394 24.7857 36.0935C24.7857 36.0475 24.7857 36.0016 24.7857 35.9557C24.7857 35.9098 24.7857 35.8639 24.7857 35.818C24.7857 35.7721 24.7857 35.7263 24.7857 35.6804C24.7857 35.6346 24.7857 35.5887 24.7857 35.5429C24.7857 35.4971 24.7857 35.4513 24.7857 35.4055C24.7857 35.3597 24.7857 35.314 24.7857 35.2682C24.7857 35.2225 24.7857 35.1767 24.7857 35.131C24.7857 35.0853 24.7857 35.0396 24.7857 34.9939C24.7857 34.9483 24.7857 34.9026 24.7857 34.857C24.7857 34.8113 24.7857 34.7657 24.7857 34.7201C24.7857 34.6745 24.7857 34.6289 24.7857 34.5834C24.7857 34.5378 24.7857 34.4922 24.7857 34.4467C24.7857 34.4012 24.7857 34.3557 24.7857 34.3102C24.7857 34.2647 24.7857 34.2193 24.7857 34.1738C24.7857 34.1284 24.7857 34.083 24.7857 34.0376C24.7857 33.9922 24.7857 33.9468 24.7857 33.9015C24.7857 33.8561 24.7857 33.8108 24.7857 33.7655C24.7857 33.7202 24.7857 33.6749 24.7857 33.6296C24.7857 33.5844 24.7857 33.5392 24.7857 33.4939C24.7857 33.4487 24.7857 33.4036 24.7857 33.3584C24.7857 33.3132 24.7857 33.2681 24.7857 33.223C24.7857 33.1779 24.7857 33.1328 24.7857 33.0877C24.7857 33.0427 24.7857 32.9976 24.7857 32.9526C24.7857 32.9076 24.7857 32.8626 24.7857 32.8177C24.7857 32.7727 24.7857 32.7278 24.7857 32.6829C24.7857 32.638 24.7857 32.5931 24.7857 32.5483C24.7857 32.5034 24.7857 32.4586 24.7857 32.4138C24.7857 32.369 24.7857 32.3242 24.7857 32.2795C24.7857 32.2348 24.7857 32.1901 24.7857 32.1454C24.7857 32.1007 24.7857 32.0561 24.7857 32.0115C24.7857 31.9668 24.7857 31.9223 24.7857 31.8777C24.7857 31.8331 24.7857 31.7886 24.7857 31.7441C24.7857 31.6996 24.7857 31.6552 24.7857 31.6107C24.7857 31.5663 24.7857 31.5219 24.7857 31.4775C24.7857 31.4332 24.7857 31.3888 24.7857 31.3445C24.7857 31.3002 24.7857 31.2559 24.7857 31.2117C24.7857 31.1674 24.7857 31.1232 24.7857 31.0791C24.7857 31.0349 24.7857 30.9908 24.7857 30.9466C24.7857 30.9025 24.7857 30.8585 24.7857 30.8144C24.7857 30.7704 24.7857 30.7264 24.7857 30.6824C24.7857 30.6385 24.7857 30.5945 24.7857 30.5506C24.7857 30.5067 24.7857 30.4629 24.7857 30.419C24.7857 30.3752 24.7857 30.3314 24.7857 30.2877C24.7857 30.2439 24.7857 30.2002 24.7857 30.1565C24.7857 30.1128 24.7857 30.0692 24.7857 30.0256C24.7857 29.982 24.7857 29.9384 24.7857 29.8949C24.7857 29.8514 24.7857 29.8079 24.7857 29.7644C24.7857 29.721 24.7857 29.6776 24.7857 29.6342C24.7857 29.5908 24.7857 29.5475 24.7857 29.5042C24.7857 29.4609 24.7857 29.4176 24.7857 29.3744C24.7857 29.3312 24.7857 29.288 24.7857 29.2449C24.7857 29.2018 24.7857 29.1587 24.7857 29.1156C24.7857 29.0726 24.7857 29.0296 24.7857 28.9866C24.7857 28.9436 24.7857 28.9007 24.7857 28.8578C24.7857 28.8149 24.7857 28.7721 24.7857 28.7293C24.7857 28.6865 24.7857 28.6437 24.7857 28.601C24.7857 28.5583 24.7857 28.5156 24.7857 28.473C24.7857 28.4304 24.7857 28.3878 24.7857 28.3452C24.7857 28.3027 24.7857 28.2602 24.7857 28.2178C24.7857 28.1753 24.7857 28.1329 24.7857 28.0906C24.7857 28.0482 24.7857 28.0059 24.7857 27.9636C24.7857 27.9214 24.7857 27.8791 24.7857 27.837C24.7857 27.7948 24.7857 27.7527 24.7857 27.7106C24.7857 27.6685 24.7857 27.6265 24.7857 27.5845C24.7857 27.5425 24.7857 27.5006 24.7857 27.4587C24.7857 27.4168 24.7857 27.3749 24.7857 27.3331C24.7857 27.2913 24.7857 27.2496 24.7857 27.2079C24.7857 27.1662 24.7857 27.1246 24.7857 27.083C24.7857 27.0414 24.7857 26.9998 24.7857 26.9583C24.7857 26.9168 24.7857 26.8754 24.7857 26.834C24.7857 26.7926 24.7857 26.7512 24.7857 26.7099C24.7857 26.6686 24.7857 26.6274 24.7857 26.5862C24.7857 26.545 24.7857 26.5039 24.7857 26.4628C24.7857 26.4217 24.7857 26.3807 24.7857 26.3397C24.7857 26.2987 24.7857 26.2578 24.7857 26.2169C24.7857 26.176 24.7857 26.1352 24.7857 26.0944C24.7857 26.0536 24.7857 26.0129 24.7857 25.9723C24.7857 25.9316 24.7857 25.891 24.7857 25.8504C24.7857 25.8099 24.7857 25.7694 24.7857 25.7289C24.7857 25.6885 24.7857 25.6481 24.7857 25.6078C24.7857 25.5675 24.7857 25.5272 24.7857 25.487C24.7857 25.4467 24.7857 25.4066 24.7857 25.3665C24.7857 25.3264 24.7857 25.2863 24.7857 25.2463C24.7857 25.2063 24.7857 25.1664 24.7857 25.1265C24.7857 25.0866 24.7857 25.0468 24.7857 25.0071C24.7857 24.9673 24.7857 24.9276 24.7857 24.888C24.7857 24.8483 24.7857 24.8087 24.7857 24.7692C24.7857 24.7297 24.7857 24.6902 24.7857 24.6508C24.7857 24.6114 24.7857 24.5721 24.7857 24.5328C24.7857 24.4935 24.7857 24.4543 24.7857 24.4151C24.7857 24.376 24.7857 24.3369 24.7857 24.2978C24.7857 24.2588 24.7857 24.2198 24.7857 24.1809C24.7857 24.142 24.7857 24.1031 24.7857 24.0643C24.7857 24.0255 24.7857 23.9868 24.7857 23.9481C24.7857 23.9095 24.7857 23.8709 24.7857 23.8323C24.7857 23.7938 24.7857 23.7553 24.7857 23.7169C24.7857 23.6785 24.7857 23.6401 24.7857 23.6019C24.7857 23.5636 24.7857 23.5254 24.7857 23.4872C24.7857 23.4491 24.7857 23.411 24.7857 23.373C24.7857 23.3349 24.7857 23.297 24.7857 23.2591C24.7857 23.2212 24.7857 23.1834 24.7857 23.1456C24.7857 23.1079 24.7857 23.0702 24.7857 23.0326C24.7857 22.9949 24.7857 22.9574 24.7857 22.9199C24.7857 22.8824 24.7857 22.845 24.7857 22.8076C24.7857 22.7703 24.7857 22.733 24.7857 22.6958C24.7857 22.6586 24.7857 22.6214 24.7857 22.5844C24.7857 22.5473 24.7857 22.5103 24.7857 22.4733C24.7857 22.4364 24.7857 22.3995 24.7857 22.3627C24.7857 22.326 24.7857 22.2892 24.7857 22.2526C24.7857 22.2159 24.7857 22.1793 24.7857 22.1428C24.7857 22.1063 24.7857 22.0699 24.7857 22.0335C24.7857 21.9971 24.7857 21.9608 24.7857 21.9246C24.7857 21.8884 24.7857 21.8522 24.7857 21.8162C24.7857 21.7801 24.7857 21.7441 24.7857 21.7082C24.7857 21.6722 24.7857 21.6364 24.7857 21.6006C24.7857 21.5648 24.7857 21.5291 24.7857 21.4935C24.7857 21.4578 24.7857 21.4223 24.7857 21.3868C24.7857 21.3513 24.7857 21.3159 24.7857 21.2805C24.7857 21.2452 24.7857 21.21 24.7857 21.1748C24.7857 21.1396 24.7857 21.1045 24.7857 21.0695C24.7857 21.0344 24.7857 20.9995 24.7857 20.9646C24.7857 20.9297 24.7857 20.8949 24.7857 20.8602C24.7857 20.8255 24.7857 20.7908 24.7857 20.7563C24.7857 20.7217 24.7857 20.6872 24.7857 20.6528C24.7857 20.6184 24.7857 20.5841 24.7857 20.5498C24.7857 20.5156 24.7857 20.4814 24.7857 20.4473C24.7857 20.4132 24.7857 20.3792 24.7857 20.3453C24.7857 20.3114 24.7857 20.2775 24.7857 20.2437C24.7857 20.21 24.7857 20.1763 24.7857 20.1427C24.7857 20.1091 24.7857 20.0755 24.7857 20.0421C24.7857 20.0086 24.7857 19.9753 24.7857 19.942C24.7857 19.9087 24.7857 19.8755 24.7857 19.8424C24.7857 19.8093 24.7857 19.7763 24.7857 19.7433C24.7857 19.7104 24.7857 19.6775 24.7857 19.6447C24.7857 19.612 24.7857 19.5793 24.7857 19.5466C24.7857 19.514 24.7857 19.4815 24.7857 19.4491C24.7857 19.4166 24.7857 19.3843 24.7857 19.352C24.7857 19.3197 24.7857 19.2875 24.7857 19.2554C24.7857 19.2233 24.7857 19.1913 24.7857 19.1594C24.7857 19.1275 24.7857 19.0956 24.7857 19.0639C24.7857 19.0321 24.7857 19.0004 24.7857 18.9689C24.7857 18.9373 24.7857 18.9058 24.7857 18.8744C24.7857 18.843 24.7857 18.8117 24.7857 18.7805C24.7857 18.7492 24.7857 18.7181 24.7857 18.687C24.7857 18.656 24.7857 18.625 24.7857 18.5942C24.7857 18.5633 24.7857 18.5325 24.7857 18.5018C24.7857 18.4711 24.7857 18.4405 24.7857 18.41C24.7857 18.3795 24.7857 18.3491 24.7857 18.3188C24.7857 18.2884 24.7857 18.2582 24.7857 18.2281C24.7857 18.1979 24.7857 18.1679 24.7857 18.1379C24.7857 18.1079 24.7857 18.0781 24.7857 18.0483C24.7857 18.0185 24.7857 17.9888 24.7857 17.9593C24.7857 17.9297 24.7857 17.9002 24.7857 17.8708C24.7857 17.8414 24.7857 17.8121 24.7857 17.7829C24.7857 17.7536 24.7857 17.7245 24.7857 17.6955C24.7857 17.6665 24.7857 17.6375 24.7857 17.6087C24.7857 17.5799 24.7857 17.5511 24.7857 17.5225C24.7857 17.4939 24.7857 17.4653 24.7857 17.4369C24.7857 17.4084 24.7857 17.3801 24.7857 17.3518C24.7857 17.3235 24.7857 17.2954 24.7857 17.2673C24.7857 17.2393 24.7857 17.2113 24.7857 17.1834C24.7857 17.1556 24.7857 17.1278 24.7857 17.1001C24.7857 17.0725 24.7857 17.0449 24.7857 17.0174C24.7857 16.9899 24.7857 16.9626 24.7857 16.9353C24.7857 16.908 24.7857 16.8809 24.7857 16.8538C24.7857 16.8267 24.7857 16.7997 24.7857 16.7729C24.7857 16.746 24.7857 16.7192 24.7857 16.6925C24.7857 16.6659 24.7857 16.6393 24.7857 16.6128C24.7857 16.5864 24.7857 16.56 24.7857 16.5337C24.7857 16.5075 24.7857 16.4813 24.7857 16.4553C24.7857 16.4292 24.7857 16.4032 24.7857 16.3774C24.7857 16.3515 24.7857 16.3258 24.7857 16.3001C24.7857 16.2745 24.7857 16.2489 24.7857 16.2235C24.7857 16.1981 24.7857 16.1727 24.7857 16.1475C24.7857 16.1223 24.7857 16.0972 24.7857 16.0721C24.7857 16.0471 24.7857 16.0222 24.7857 15.9974C24.7857 15.9726 24.7857 15.9479 24.7857 15.9233C24.7857 15.8987 24.7857 15.8742 24.7857 15.8498C24.7857 15.8254 24.7857 15.8012 24.7857 15.777C24.7857 15.7528 24.7857 15.7288 24.7857 15.7048C24.7857 15.6809 24.7857 15.657 24.7857 15.6333C24.7857 15.6095 24.7857 15.5859 24.7857 15.5624C24.7857 15.5389 24.7857 15.5155 24.7857 15.4922C24.7857 15.4689 24.7857 15.4457 24.7857 15.4226C24.7857 15.3995 24.7857 15.3765 24.7857 15.3537C24.7857 15.3308 24.7857 15.3081 24.7857 15.2854C24.7857 15.2628 24.7857 15.2403 24.7857 15.2178C24.7857 15.1954 24.7857 15.1731 24.7857 15.1509C24.7857 15.1287 24.7857 15.1067 24.7857 15.0847C24.7857 15.0627 24.7857 15.0409 24.7857 15.0191C24.7857 14.9974 24.7857 14.9758 24.7857 14.9542C24.7857 14.9327 24.7857 14.9113 24.7857 14.89C24.7857 14.8687 24.7857 14.8476 24.7857 14.8265C24.7857 14.8055 24.7857 14.7845 24.7857 14.7637C24.7857 14.7428 24.7857 14.7221 24.7857 14.7015C24.7857 14.6809 24.7857 14.6605 24.7857 14.6401C24.7857 14.6197 24.7857 14.5995 24.7857 14.5793C24.7857 14.5592 24.7857 14.5392 24.7857 14.5193C24.7857 14.4994 24.7857 14.4796 24.7857 14.4599C24.7857 14.4403 24.7857 14.4207 24.7857 14.4013C24.7857 14.3819 24.7857 14.3626 24.7857 14.3434C24.7857 14.3242 24.7857 14.3051 24.7857 14.2862C24.7857 14.2672 24.7857 14.2484 24.7857 14.2297C24.7857 14.211 24.7857 14.1924 24.7857 14.1739C24.7857 14.1554 24.7857 14.1371 24.7857 14.1188C24.7857 14.1006 24.7857 14.0825 24.7857 14.0645C24.7857 14.0465 24.7857 14.0286 24.7857 14.0109C24.7857 13.9932 24.7857 13.9755 24.7857 13.958C24.7857 13.9405 24.7857 13.9232 24.7857 13.9059C24.7857 13.8886 24.7857 13.8715 24.7857 13.8545C24.7857 13.8375 24.7857 13.8206 24.7857 13.8038C24.7857 13.7871 24.7857 13.7704 24.7857 13.7539C24.7857 13.7374 24.7857 13.721 24.7857 13.7048C24.7857 13.6885 24.7857 13.6724 24.7857 13.6564C24.7857 13.6403 24.7857 13.6245 24.7857 13.6087C24.7857 13.5929 24.7857 13.5773 24.7857 13.5618C24.7857 13.5463 24.7857 13.5309 24.7857 13.5157C24.7857 13.5004 24.7857 13.4853 24.7857 13.4703C24.7857 13.4553 24.7857 13.4404 24.7857 13.4257C24.7857 13.4109 24.7857 13.3963 24.7857 13.3818C24.7857 13.3673 24.7857 13.353 24.7857 13.3387C24.7857 13.3245 24.7857 13.3104 24.7857 13.2964C24.7857 13.2825 24.7857 13.2686 24.7857 13.2549C24.7857 13.2412 24.7857 13.2276 24.7857 13.2142C24.7857 13.2007 24.7857 13.1874 24.7857 13.1742C24.7857 13.1611 24.7857 13.148 24.7857 13.1351C24.7857 13.1222 24.7857 13.1094 24.7857 13.0967C24.7857 13.0841 24.7857 13.0715 24.7857 13.0591C24.7857 13.0467 24.7857 13.0345 24.7857 13.0224C24.7857 13.0102 24.7857 12.9982 24.7857 12.9864C24.7857 12.9745 24.7857 12.9628 24.7857 12.9512C24.7857 12.9396 24.7857 12.9282 24.7857 12.9168C24.7857 12.9055 24.7857 12.8943 24.7857 12.8833C24.7857 12.8722 24.7857 12.8613 24.7857 12.8505C24.7857 12.8397 24.7857 12.8291 24.7857 12.8186C24.7857 12.8081 24.7857 12.7977 24.7857 12.7875C24.7857 12.7773 24.7857 12.7672 24.7857 12.7572C24.7857 12.7472 24.7857 12.7374 24.7857 12.7277C24.7857 12.7181 24.7857 12.7085 24.7857 12.6991C24.7857 12.6897 24.7857 12.6804 24.7857 12.6713C24.7857 12.6622 24.7857 12.6532 24.7857 12.6443C24.7857 12.6355 24.7857 12.6268 24.7857 12.6182C24.7857 12.6096 24.7857 12.6012 24.7857 12.5929C24.7857 12.5846 24.7857 12.5765 24.7857 12.5685C24.7857 12.5605 24.7857 12.5526 24.7857 12.5449C24.7857 12.5372 24.7857 12.5296 24.7857 12.5221C24.7857 12.5147 24.7857 12.5074 24.7857 12.5003C24.7857 12.4931 24.7857 12.4861 24.7857 12.4792C24.7857 12.4723 24.7857 12.4656 24.7857 12.459C24.7857 12.4525 24.7857 12.446 24.7857 12.4397C24.7857 12.4334 24.7857 12.4273 24.7857 12.4213C24.7857 12.4153 24.7857 12.4094 24.7857 12.4037C24.7857 12.398 24.7857 12.3924 24.7857 12.387C24.7857 12.3816 24.7857 12.3763 24.7857 12.3712C24.7857 12.3661 24.7857 12.3611 24.7857 12.3562C24.7857 12.3514 24.7857 12.3467 24.7857 12.3422C24.7857 12.3376 24.7857 12.3332 24.7857 12.329C24.7857 12.3247 24.7857 12.3206 24.7857 12.3167C24.7857 12.3127 24.7857 12.3089 24.7857 12.3053C24.7857 12.3016 24.7857 12.2981 24.7857 12.2948C24.7857 12.2914 24.7857 12.2882 24.7857 12.2852C24.7857 12.2821 24.7857 12.2792 24.7857 12.2765C24.7857 12.2737 24.7857 12.2711 24.7857 12.2686C24.7857 12.2662 24.7857 12.2639 24.7857 12.2617C24.7857 12.2596 24.7857 12.2576 24.7857 12.2558C24.7857 12.2539 24.7857 12.2522 24.7857 12.2507C24.7857 12.2491 24.7857 12.2478 24.7857 12.2465C24.7857 12.2453 24.7857 12.2442 24.7857 12.2433C24.7857 12.2423 24.7857 12.2416 24.7857 12.241C24.7857 12.2403 24.7857 12.2399 24.7857 12.2396C24.7857 12.2393 24.7857 12.2391 22.2857 12.2391C19.7857 12.2391 19.7857 12.2393 19.7857 12.2396C19.7857 12.2399 19.7857 12.2403 19.7857 12.241C19.7857 12.2416 19.7857 12.2423 19.7857 12.2433C19.7857 12.2442 19.7857 12.2453 19.7857 12.2465C19.7857 12.2478 19.7857 12.2491 19.7857 12.2507C19.7857 12.2522 19.7857 12.2539 19.7857 12.2558C19.7857 12.2576 19.7857 12.2596 19.7857 12.2617C19.7857 12.2639 19.7857 12.2662 19.7857 12.2686C19.7857 12.2711 19.7857 12.2737 19.7857 12.2765C19.7857 12.2792 19.7857 12.2821 19.7857 12.2852C19.7857 12.2882 19.7857 12.2914 19.7857 12.2948C19.7857 12.2981 19.7857 12.3016 19.7857 12.3053C19.7857 12.3089 19.7857 12.3127 19.7857 12.3167C19.7857 12.3206 19.7857 12.3247 19.7857 12.329C19.7857 12.3332 19.7857 12.3376 19.7857 12.3422C19.7857 12.3467 19.7857 12.3514 19.7857 12.3562C19.7857 12.3611 19.7857 12.3661 19.7857 12.3712C19.7857 12.3763 19.7857 12.3816 19.7857 12.387C19.7857 12.3924 19.7857 12.398 19.7857 12.4037C19.7857 12.4094 19.7857 12.4153 19.7857 12.4213C19.7857 12.4273 19.7857 12.4334 19.7857 12.4397C19.7857 12.446 19.7857 12.4525 19.7857 12.459C19.7857 12.4656 19.7857 12.4723 19.7857 12.4792C19.7857 12.4861 19.7857 12.4931 19.7857 12.5003C19.7857 12.5074 19.7857 12.5147 19.7857 12.5221C19.7857 12.5296 19.7857 12.5372 19.7857 12.5449C19.7857 12.5526 19.7857 12.5605 19.7857 12.5685C19.7857 12.5765 19.7857 12.5846 19.7857 12.5929C19.7857 12.6012 19.7857 12.6096 19.7857 12.6182C19.7857 12.6268 19.7857 12.6355 19.7857 12.6443C19.7857 12.6532 19.7857 12.6622 19.7857 12.6713C19.7857 12.6804 19.7857 12.6897 19.7857 12.6991C19.7857 12.7085 19.7857 12.7181 19.7857 12.7277C19.7857 12.7374 19.7857 12.7472 19.7857 12.7572C19.7857 12.7672 19.7857 12.7773 19.7857 12.7875C19.7857 12.7977 19.7857 12.8081 19.7857 12.8186C19.7857 12.8291 19.7857 12.8397 19.7857 12.8505C19.7857 12.8613 19.7857 12.8722 19.7857 12.8833C19.7857 12.8943 19.7857 12.9055 19.7857 12.9168C19.7857 12.9282 19.7857 12.9396 19.7857 12.9512C19.7857 12.9628 19.7857 12.9745 19.7857 12.9864C19.7857 12.9982 19.7857 13.0102 19.7857 13.0224C19.7857 13.0345 19.7857 13.0467 19.7857 13.0591C19.7857 13.0715 19.7857 13.0841 19.7857 13.0967C19.7857 13.1094 19.7857 13.1222 19.7857 13.1351C19.7857 13.148 19.7857 13.1611 19.7857 13.1742C19.7857 13.1874 19.7857 13.2007 19.7857 13.2142C19.7857 13.2276 19.7857 13.2412 19.7857 13.2549C19.7857 13.2686 19.7857 13.2825 19.7857 13.2964C19.7857 13.3104 19.7857 13.3245 19.7857 13.3387C19.7857 13.353 19.7857 13.3673 19.7857 13.3818C19.7857 13.3963 19.7857 13.4109 19.7857 13.4257C19.7857 13.4404 19.7857 13.4553 19.7857 13.4703C19.7857 13.4853 19.7857 13.5004 19.7857 13.5157C19.7857 13.5309 19.7857 13.5463 19.7857 13.5618C19.7857 13.5773 19.7857 13.5929 19.7857 13.6087C19.7857 13.6245 19.7857 13.6403 19.7857 13.6564C19.7857 13.6724 19.7857 13.6885 19.7857 13.7048C19.7857 13.721 19.7857 13.7374 19.7857 13.7539C19.7857 13.7704 19.7857 13.7871 19.7857 13.8038C19.7857 13.8206 19.7857 13.8375 19.7857 13.8545C19.7857 13.8715 19.7857 13.8886 19.7857 13.9059C19.7857 13.9232 19.7857 13.9405 19.7857 13.958C19.7857 13.9755 19.7857 13.9932 19.7857 14.0109C19.7857 14.0286 19.7857 14.0465 19.7857 14.0645C19.7857 14.0825 19.7857 14.1006 19.7857 14.1188C19.7857 14.1371 19.7857 14.1554 19.7857 14.1739C19.7857 14.1924 19.7857 14.211 19.7857 14.2297C19.7857 14.2484 19.7857 14.2672 19.7857 14.2862C19.7857 14.3051 19.7857 14.3242 19.7857 14.3434C19.7857 14.3626 19.7857 14.3819 19.7857 14.4013C19.7857 14.4207 19.7857 14.4403 19.7857 14.4599C19.7857 14.4796 19.7857 14.4994 19.7857 14.5193C19.7857 14.5392 19.7857 14.5592 19.7857 14.5793C19.7857 14.5995 19.7857 14.6197 19.7857 14.6401C19.7857 14.6605 19.7857 14.6809 19.7857 14.7015C19.7857 14.7221 19.7857 14.7428 19.7857 14.7637C19.7857 14.7845 19.7857 14.8055 19.7857 14.8265C19.7857 14.8476 19.7857 14.8687 19.7857 14.89C19.7857 14.9113 19.7857 14.9327 19.7857 14.9542C19.7857 14.9758 19.7857 14.9974 19.7857 15.0191C19.7857 15.0409 19.7857 15.0627 19.7857 15.0847C19.7857 15.1067 19.7857 15.1287 19.7857 15.1509C19.7857 15.1731 19.7857 15.1954 19.7857 15.2178C19.7857 15.2403 19.7857 15.2628 19.7857 15.2854C19.7857 15.3081 19.7857 15.3308 19.7857 15.3537C19.7857 15.3765 19.7857 15.3995 19.7857 15.4226C19.7857 15.4457 19.7857 15.4689 19.7857 15.4922C19.7857 15.5155 19.7857 15.5389 19.7857 15.5624C19.7857 15.5859 19.7857 15.6095 19.7857 15.6333C19.7857 15.657 19.7857 15.6809 19.7857 15.7048C19.7857 15.7288 19.7857 15.7528 19.7857 15.777C19.7857 15.8012 19.7857 15.8254 19.7857 15.8498C19.7857 15.8742 19.7857 15.8987 19.7857 15.9233C19.7857 15.9479 19.7857 15.9726 19.7857 15.9974C19.7857 16.0222 19.7857 16.0471 19.7857 16.0721C19.7857 16.0972 19.7857 16.1223 19.7857 16.1475C19.7857 16.1727 19.7857 16.1981 19.7857 16.2235C19.7857 16.2489 19.7857 16.2745 19.7857 16.3001C19.7857 16.3258 19.7857 16.3515 19.7857 16.3774C19.7857 16.4032 19.7857 16.4292 19.7857 16.4553C19.7857 16.4813 19.7857 16.5075 19.7857 16.5337C19.7857 16.56 19.7857 16.5864 19.7857 16.6128C19.7857 16.6393 19.7857 16.6659 19.7857 16.6925C19.7857 16.7192 19.7857 16.746 19.7857 16.7729C19.7857 16.7997 19.7857 16.8267 19.7857 16.8538C19.7857 16.8809 19.7857 16.908 19.7857 16.9353C19.7857 16.9626 19.7857 16.9899 19.7857 17.0174C19.7857 17.0449 19.7857 17.0725 19.7857 17.1001C19.7857 17.1278 19.7857 17.1556 19.7857 17.1834C19.7857 17.2113 19.7857 17.2393 19.7857 17.2673C19.7857 17.2954 19.7857 17.3235 19.7857 17.3518C19.7857 17.3801 19.7857 17.4084 19.7857 17.4369C19.7857 17.4653 19.7857 17.4939 19.7857 17.5225C19.7857 17.5511 19.7857 17.5799 19.7857 17.6087C19.7857 17.6375 19.7857 17.6665 19.7857 17.6955C19.7857 17.7245 19.7857 17.7536 19.7857 17.7829C19.7857 17.8121 19.7857 17.8414 19.7857 17.8708C19.7857 17.9002 19.7857 17.9297 19.7857 17.9593C19.7857 17.9888 19.7857 18.0185 19.7857 18.0483C19.7857 18.0781 19.7857 18.1079 19.7857 18.1379C19.7857 18.1679 19.7857 18.1979 19.7857 18.2281C19.7857 18.2582 19.7857 18.2884 19.7857 18.3188C19.7857 18.3491 19.7857 18.3795 19.7857 18.41C19.7857 18.4405 19.7857 18.4711 19.7857 18.5018C19.7857 18.5325 19.7857 18.5633 19.7857 18.5942C19.7857 18.625 19.7857 18.656 19.7857 18.687C19.7857 18.7181 19.7857 18.7492 19.7857 18.7805C19.7857 18.8117 19.7857 18.843 19.7857 18.8744C19.7857 18.9058 19.7857 18.9373 19.7857 18.9689C19.7857 19.0004 19.7857 19.0321 19.7857 19.0639C19.7857 19.0956 19.7857 19.1275 19.7857 19.1594C19.7857 19.1913 19.7857 19.2233 19.7857 19.2554C19.7857 19.2875 19.7857 19.3197 19.7857 19.352C19.7857 19.3843 19.7857 19.4166 19.7857 19.4491C19.7857 19.4815 19.7857 19.514 19.7857 19.5466C19.7857 19.5793 19.7857 19.612 19.7857 19.6447C19.7857 19.6775 19.7857 19.7104 19.7857 19.7433C19.7857 19.7763 19.7857 19.8093 19.7857 19.8424C19.7857 19.8755 19.7857 19.9087 19.7857 19.942C19.7857 19.9753 19.7857 20.0086 19.7857 20.0421C19.7857 20.0755 19.7857 20.1091 19.7857 20.1427C19.7857 20.1763 19.7857 20.21 19.7857 20.2437C19.7857 20.2775 19.7857 20.3114 19.7857 20.3453C19.7857 20.3792 19.7857 20.4132 19.7857 20.4473C19.7857 20.4814 19.7857 20.5156 19.7857 20.5498C19.7857 20.5841 19.7857 20.6184 19.7857 20.6528C19.7857 20.6872 19.7857 20.7217 19.7857 20.7563C19.7857 20.7908 19.7857 20.8255 19.7857 20.8602C19.7857 20.8949 19.7857 20.9297 19.7857 20.9646C19.7857 20.9995 19.7857 21.0344 19.7857 21.0695C19.7857 21.1045 19.7857 21.1396 19.7857 21.1748C19.7857 21.21 19.7857 21.2452 19.7857 21.2805C19.7857 21.3159 19.7857 21.3513 19.7857 21.3868C19.7857 21.4223 19.7857 21.4578 19.7857 21.4935C19.7857 21.5291 19.7857 21.5648 19.7857 21.6006C19.7857 21.6364 19.7857 21.6722 19.7857 21.7082C19.7857 21.7441 19.7857 21.7801 19.7857 21.8162C19.7857 21.8522 19.7857 21.8884 19.7857 21.9246C19.7857 21.9608 19.7857 21.9971 19.7857 22.0335C19.7857 22.0699 19.7857 22.1063 19.7857 22.1428C19.7857 22.1793 19.7857 22.2159 19.7857 22.2526C19.7857 22.2892 19.7857 22.326 19.7857 22.3627C19.7857 22.3995 19.7857 22.4364 19.7857 22.4733C19.7857 22.5103 19.7857 22.5473 19.7857 22.5844C19.7857 22.6214 19.7857 22.6586 19.7857 22.6958C19.7857 22.733 19.7857 22.7703 19.7857 22.8076C19.7857 22.845 19.7857 22.8824 19.7857 22.9199C19.7857 22.9574 19.7857 22.9949 19.7857 23.0326C19.7857 23.0702 19.7857 23.1079 19.7857 23.1456C19.7857 23.1834 19.7857 23.2212 19.7857 23.2591C19.7857 23.297 19.7857 23.3349 19.7857 23.373C19.7857 23.411 19.7857 23.4491 19.7857 23.4872C19.7857 23.5254 19.7857 23.5636 19.7857 23.6019C19.7857 23.6401 19.7857 23.6785 19.7857 23.7169C19.7857 23.7553 19.7857 23.7938 19.7857 23.8323C19.7857 23.8709 19.7857 23.9095 19.7857 23.9481C19.7857 23.9868 19.7857 24.0255 19.7857 24.0643C19.7857 24.1031 19.7857 24.142 19.7857 24.1809C19.7857 24.2198 19.7857 24.2588 19.7857 24.2978C19.7857 24.3369 19.7857 24.376 19.7857 24.4151C19.7857 24.4543 19.7857 24.4935 19.7857 24.5328C19.7857 24.5721 19.7857 24.6114 19.7857 24.6508C19.7857 24.6902 19.7857 24.7297 19.7857 24.7692C19.7857 24.8087 19.7857 24.8483 19.7857 24.888C19.7857 24.9276 19.7857 24.9673 19.7857 25.0071C19.7857 25.0468 19.7857 25.0866 19.7857 25.1265C19.7857 25.1664 19.7857 25.2063 19.7857 25.2463C19.7857 25.2863 19.7857 25.3264 19.7857 25.3665C19.7857 25.4066 19.7857 25.4467 19.7857 25.487C19.7857 25.5272 19.7857 25.5675 19.7857 25.6078C19.7857 25.6481 19.7857 25.6885 19.7857 25.7289C19.7857 25.7694 19.7857 25.8099 19.7857 25.8504C19.7857 25.891 19.7857 25.9316 19.7857 25.9723C19.7857 26.0129 19.7857 26.0536 19.7857 26.0944C19.7857 26.1352 19.7857 26.176 19.7857 26.2169C19.7857 26.2578 19.7857 26.2987 19.7857 26.3397C19.7857 26.3807 19.7857 26.4217 19.7857 26.4628C19.7857 26.5039 19.7857 26.545 19.7857 26.5862C19.7857 26.6274 19.7857 26.6686 19.7857 26.7099C19.7857 26.7512 19.7857 26.7926 19.7857 26.834C19.7857 26.8754 19.7857 26.9168 19.7857 26.9583C19.7857 26.9998 19.7857 27.0414 19.7857 27.083C19.7857 27.1246 19.7857 27.1662 19.7857 27.2079C19.7857 27.2496 19.7857 27.2913 19.7857 27.3331C19.7857 27.3749 19.7857 27.4168 19.7857 27.4587C19.7857 27.5006 19.7857 27.5425 19.7857 27.5845C19.7857 27.6265 19.7857 27.6685 19.7857 27.7106C19.7857 27.7527 19.7857 27.7948 19.7857 27.837C19.7857 27.8791 19.7857 27.9214 19.7857 27.9636C19.7857 28.0059 19.7857 28.0482 19.7857 28.0906C19.7857 28.1329 19.7857 28.1753 19.7857 28.2178C19.7857 28.2602 19.7857 28.3027 19.7857 28.3452C19.7857 28.3878 19.7857 28.4304 19.7857 28.473C19.7857 28.5156 19.7857 28.5583 19.7857 28.601C19.7857 28.6437 19.7857 28.6865 19.7857 28.7293C19.7857 28.7721 19.7857 28.8149 19.7857 28.8578C19.7857 28.9007 19.7857 28.9436 19.7857 28.9866C19.7857 29.0296 19.7857 29.0726 19.7857 29.1156C19.7857 29.1587 19.7857 29.2018 19.7857 29.2449C19.7857 29.288 19.7857 29.3312 19.7857 29.3744C19.7857 29.4176 19.7857 29.4609 19.7857 29.5042C19.7857 29.5475 19.7857 29.5908 19.7857 29.6342C19.7857 29.6776 19.7857 29.721 19.7857 29.7644C19.7857 29.8079 19.7857 29.8514 19.7857 29.8949C19.7857 29.9384 19.7857 29.982 19.7857 30.0256C19.7857 30.0692 19.7857 30.1128 19.7857 30.1565C19.7857 30.2002 19.7857 30.2439 19.7857 30.2877C19.7857 30.3314 19.7857 30.3752 19.7857 30.419C19.7857 30.4629 19.7857 30.5067 19.7857 30.5506C19.7857 30.5945 19.7857 30.6385 19.7857 30.6824C19.7857 30.7264 19.7857 30.7704 19.7857 30.8144C19.7857 30.8585 19.7857 30.9025 19.7857 30.9466C19.7857 30.9908 19.7857 31.0349 19.7857 31.0791C19.7857 31.1232 19.7857 31.1674 19.7857 31.2117C19.7857 31.2559 19.7857 31.3002 19.7857 31.3445C19.7857 31.3888 19.7857 31.4332 19.7857 31.4775C19.7857 31.5219 19.7857 31.5663 19.7857 31.6107C19.7857 31.6552 19.7857 31.6996 19.7857 31.7441C19.7857 31.7886 19.7857 31.8331 19.7857 31.8777C19.7857 31.9223 19.7857 31.9668 19.7857 32.0115C19.7857 32.0561 19.7857 32.1007 19.7857 32.1454C19.7857 32.1901 19.7857 32.2348 19.7857 32.2795C19.7857 32.3242 19.7857 32.369 19.7857 32.4138C19.7857 32.4586 19.7857 32.5034 19.7857 32.5483C19.7857 32.5931 19.7857 32.638 19.7857 32.6829C19.7857 32.7278 19.7857 32.7727 19.7857 32.8177C19.7857 32.8626 19.7857 32.9076 19.7857 32.9526C19.7857 32.9976 19.7857 33.0427 19.7857 33.0877C19.7857 33.1328 19.7857 33.1779 19.7857 33.223C19.7857 33.2681 19.7857 33.3132 19.7857 33.3584C19.7857 33.4036 19.7857 33.4487 19.7857 33.4939C19.7857 33.5392 19.7857 33.5844 19.7857 33.6296C19.7857 33.6749 19.7857 33.7202 19.7857 33.7655C19.7857 33.8108 19.7857 33.8561 19.7857 33.9015C19.7857 33.9468 19.7857 33.9922 19.7857 34.0376C19.7857 34.083 19.7857 34.1284 19.7857 34.1738C19.7857 34.2193 19.7857 34.2647 19.7857 34.3102C19.7857 34.3557 19.7857 34.4012 19.7857 34.4467C19.7857 34.4922 19.7857 34.5378 19.7857 34.5834C19.7857 34.6289 19.7857 34.6745 19.7857 34.7201C19.7857 34.7657 19.7857 34.8113 19.7857 34.857C19.7857 34.9026 19.7857 34.9483 19.7857 34.9939C19.7857 35.0396 19.7857 35.0853 19.7857 35.131C19.7857 35.1767 19.7857 35.2225 19.7857 35.2682C19.7857 35.314 19.7857 35.3597 19.7857 35.4055C19.7857 35.4513 19.7857 35.4971 19.7857 35.5429C19.7857 35.5887 19.7857 35.6346 19.7857 35.6804C19.7857 35.7263 19.7857 35.7721 19.7857 35.818C19.7857 35.8639 19.7857 35.9098 19.7857 35.9557C19.7857 36.0016 19.7857 36.0475 19.7857 36.0935C19.7857 36.1394 19.7857 36.1854 19.7857 36.2313C19.7857 36.2773 19.7857 36.3233 19.7857 36.3693C19.7857 36.4153 19.7857 36.4613 19.7857 36.5073C19.7857 36.5533 19.7857 36.5993 19.7857 36.6454C19.7857 36.6914 19.7857 36.7375 19.7857 36.7835C19.7857 36.8296 19.7857 36.8757 19.7857 36.9218C19.7857 36.9679 19.7857 37.014 19.7857 37.0601C19.7857 37.1062 19.7857 37.1523 19.7857 37.1985C19.7857 37.2446 19.7857 37.2907 19.7857 37.3369C19.7857 37.383 19.7857 37.4292 19.7857 37.4754C19.7857 37.5215 19.7857 37.5677 19.7857 37.6139C19.7857 37.6601 19.7857 37.7063 19.7857 37.7525C19.7857 37.7987 19.7857 37.8449 19.7857 37.8911C19.7857 37.9374 19.7857 37.9836 19.7857 38.0298C19.7857 38.076 19.7857 38.1223 19.7857 38.1685C19.7857 38.2148 19.7857 38.261 19.7857 38.3073C19.7857 38.3536 19.7857 38.3998 19.7857 38.4461C19.7857 38.4924 19.7857 38.5386 19.7857 38.5849C19.7857 38.6312 19.7857 38.6775 19.7857 38.7238C19.7857 38.7701 19.7857 38.8164 19.7857 38.8627C19.7857 38.909 19.7857 38.9553 19.7857 39.0016C19.7857 39.0479 19.7857 39.0942 19.7857 39.1405C19.7857 39.1868 19.7857 39.2331 19.7857 39.2795C19.7857 39.3258 19.7857 39.3721 19.7857 39.4184C19.7857 39.4647 19.7857 39.5111 19.7857 39.5574C19.7857 39.6037 19.7857 39.65 19.7857 39.6964C19.7857 39.7427 19.7857 39.789 19.7857 39.8353C19.7857 39.8817 19.7857 39.928 19.7857 39.9743C19.7857 40.0206 19.7857 40.067 19.7857 40.1133C19.7857 40.1596 19.7857 40.2059 19.7857 40.2523C19.7857 40.2986 19.7857 40.3449 19.7857 40.3912C19.7857 40.4375 19.7857 40.4839 19.7857 40.5302C19.7857 40.5765 19.7857 40.6228 19.7857 40.6691C19.7857 40.7154 19.7857 40.7617 19.7857 40.808C19.7857 40.8543 19.7857 40.9006 19.7857 40.9469C19.7857 40.9932 19.7857 41.0395 19.7857 41.0858C19.7857 41.1321 19.7857 41.1784 19.7857 41.2247C19.7857 41.2709 19.7857 41.3172 19.7857 41.3635C19.7857 41.4097 19.7857 41.456 19.7857 41.5023C19.7857 41.5485 19.7857 41.5948 19.7857 41.641C19.7857 41.6873 19.7857 41.7335 19.7857 41.7797C19.7857 41.826 19.7857 41.8722 19.7857 41.9184C19.7857 41.9646 19.7857 42.0108 19.7857 42.057C19.7857 42.1032 19.7857 42.1494 19.7857 42.1956C19.7857 42.2418 19.7857 42.2879 19.7857 42.3341C19.7857 42.3803 19.7857 42.4264 19.7857 42.4726C19.7857 42.5187 19.7857 42.5648 19.7857 42.611C19.7857 42.6571 19.7857 42.7032 19.7857 42.7493C19.7857 42.7954 19.7857 42.8415 19.7857 42.8876C19.7857 42.9337 19.7857 42.9797 19.7857 43.0258C19.7857 43.0719 19.7857 43.1179 19.7857 43.1639C19.7857 43.21 19.7857 43.256 19.7857 43.302C19.7857 43.348 19.7857 43.394 19.7857 43.44C19.7857 43.486 19.7857 43.532 19.7857 43.5779C19.7857 43.6239 19.7857 43.6698 19.7857 43.7157C19.7857 43.7617 19.7857 43.8076 19.7857 43.8535C19.7857 43.8994 19.7857 43.9453 19.7857 43.9911C19.7857 44.037 19.7857 44.0828 19.7857 44.1287C19.7857 44.1745 19.7857 44.2203 19.7857 44.2661C19.7857 44.312 19.7857 44.3577 19.7857 44.4035C19.7857 44.4493 19.7857 44.495 19.7857 44.5408C19.7857 44.5865 19.7857 44.6322 19.7857 44.6779C19.7857 44.7236 19.7857 44.7693 19.7857 44.815C19.7857 44.8606 19.7857 44.9063 19.7857 44.9519C19.7857 44.9975 19.7857 45.0431 19.7857 45.0887C19.7857 45.1343 19.7857 45.1799 19.7857 45.2254C19.7857 45.271 19.7857 45.3165 19.7857 45.362C19.7857 45.4075 19.7857 45.453 19.7857 45.4985C19.7857 45.5439 19.7857 45.5894 19.7857 45.6348C19.7857 45.6802 19.7857 45.7256 19.7857 45.771C19.7857 45.8164 19.7857 45.8617 19.7857 45.9071C19.7857 45.9524 19.7857 45.9977 19.7857 46.043C19.7857 46.0883 19.7857 46.1336 19.7857 46.1788C19.7857 46.224 19.7857 46.2692 19.7857 46.3144C19.7857 46.3596 19.7857 46.4048 19.7857 46.4499C19.7857 46.4951 19.7857 46.5402 19.7857 46.5853C19.7857 46.6304 19.7857 46.6755 19.7857 46.7205C19.7857 46.7655 19.7857 46.8106 19.7857 46.8555C19.7857 46.9005 19.7857 46.9455 19.7857 46.9904C19.7857 47.0354 19.7857 47.0803 19.7857 47.1252C19.7857 47.17 19.7857 47.2149 19.7857 47.2597C19.7857 47.3046 19.7857 47.3494 19.7857 47.3941C19.7857 47.4389 19.7857 47.4836 19.7857 47.5283C19.7857 47.5731 19.7857 47.6177 19.7857 47.6624C19.7857 47.707 19.7857 47.7517 19.7857 47.7963C19.7857 47.8409 19.7857 47.8854 19.7857 47.93C19.7857 47.9745 19.7857 48.019 19.7857 48.0635C19.7857 48.1079 19.7857 48.1524 19.7857 48.1968C19.7857 48.2412 19.7857 48.2856 19.7857 48.3299C19.7857 48.3743 19.7857 48.4186 19.7857 48.4629C19.7857 48.5072 19.7857 48.5514 19.7857 48.5956C19.7857 48.6398 19.7857 48.684 19.7857 48.7282C19.7857 48.7723 19.7857 48.8164 19.7857 48.8605C19.7857 48.9046 19.7857 48.9486 19.7857 48.9926C19.7857 49.0367 19.7857 49.0806 19.7857 49.1246C19.7857 49.1685 19.7857 49.2124 19.7857 49.2563C19.7857 49.3002 19.7857 49.344 19.7857 49.3878C19.7857 49.4316 19.7857 49.4754 19.7857 49.5191C19.7857 49.5628 19.7857 49.6065 19.7857 49.6502C19.7857 49.6938 19.7857 49.7374 19.7857 49.781C19.7857 49.8246 19.7857 49.8681 19.7857 49.9116C19.7857 49.9551 19.7857 49.9986 19.7857 50.042C19.7857 50.0854 19.7857 50.1288 19.7857 50.1721C19.7857 50.2155 19.7857 50.2588 19.7857 50.3021C19.7857 50.3453 19.7857 50.3886 19.7857 50.4317C19.7857 50.4749 19.7857 50.5181 19.7857 50.5612C19.7857 50.6043 19.7857 50.6473 19.7857 50.6904C19.7857 50.7334 19.7857 50.7764 19.7857 50.8193C19.7857 50.8622 19.7857 50.9051 19.7857 50.948C19.7857 50.9908 19.7857 51.0336 19.7857 51.0764C19.7857 51.1192 19.7857 51.1619 19.7857 51.2046C19.7857 51.2473 19.7857 51.2899 19.7857 51.3325C19.7857 51.3751 19.7857 51.4176 19.7857 51.4601C19.7857 51.5027 19.7857 51.5451 19.7857 51.5875C19.7857 51.6299 19.7857 51.6723 19.7857 51.7146C19.7857 51.757 19.7857 51.7992 19.7857 51.8415C19.7857 51.8837 19.7857 51.9259 19.7857 51.968C19.7857 52.0102 19.7857 52.0523 19.7857 52.0943C19.7857 52.1364 19.7857 52.1784 19.7857 52.2203C19.7857 52.2623 19.7857 52.3042 19.7857 52.346C19.7857 52.3879 19.7857 52.4297 19.7857 52.4714C19.7857 52.5132 19.7857 52.5549 19.7857 52.5966C19.7857 52.6382 19.7857 52.6798 19.7857 52.7214C19.7857 52.7629 19.7857 52.8045 19.7857 52.8459C19.7857 52.8874 19.7857 52.9288 19.7857 52.9701C19.7857 53.0115 19.7857 53.0528 19.7857 53.0941C19.7857 53.1353 19.7857 53.1765 19.7857 53.2177C19.7857 53.2588 19.7857 53.2999 19.7857 53.341C19.7857 53.382 19.7857 53.423 19.7857 53.464C19.7857 53.5049 19.7857 53.5458 19.7857 53.5867C19.7857 53.6275 19.7857 53.6683 19.7857 53.709C19.7857 53.7497 19.7857 53.7904 19.7857 53.831C19.7857 53.8717 19.7857 53.9122 19.7857 53.9527C19.7857 53.9933 19.7857 54.0337 19.7857 54.0741C19.7857 54.1145 19.7857 54.1549 19.7857 54.1951C19.7857 54.2354 19.7857 54.2757 19.7857 54.3158C19.7857 54.356 19.7857 54.3961 19.7857 54.4362C19.7857 54.4763 19.7857 54.5163 19.7857 54.5562C19.7857 54.5962 19.7857 54.6361 19.7857 54.6759C19.7857 54.7157 19.7857 54.7555 19.7857 54.7952C19.7857 54.8349 19.7857 54.8746 19.7857 54.9142C19.7857 54.9538 19.7857 54.9933 19.7857 55.0328C19.7857 55.0723 19.7857 55.1117 19.7857 55.1511C19.7857 55.1904 19.7857 55.2297 19.7857 55.269C19.7857 55.3082 19.7857 55.3474 19.7857 55.3865C19.7857 55.4256 19.7857 55.4647 19.7857 55.5037C19.7857 55.5427 19.7857 55.5816 19.7857 55.6205C19.7857 55.6593 19.7857 55.6982 19.7857 55.7369C19.7857 55.7756 19.7857 55.8143 19.7857 55.8529C19.7857 55.8916 19.7857 55.9301 19.7857 55.9686C19.7857 56.0071 19.7857 56.0455 19.7857 56.0839C19.7857 56.1222 19.7857 56.1605 19.7857 56.1988C19.7857 56.237 19.7857 56.2752 19.7857 56.3133C19.7857 56.3514 19.7857 56.3894 19.7857 56.4274C19.7857 56.4654 19.7857 56.5033 19.7857 56.5411C19.7857 56.579 19.7857 56.6167 19.7857 56.6544C19.7857 56.6921 19.7857 56.7298 19.7857 56.7674C19.7857 56.8049 19.7857 56.8424 19.7857 56.8799C19.7857 56.9173 19.7857 56.9547 19.7857 56.992C19.7857 57.0293 19.7857 57.0665 19.7857 57.1037C19.7857 57.1408 19.7857 57.1779 19.7857 57.2149C19.7857 57.252 19.7857 57.2889 19.7857 57.3258C19.7857 57.3627 19.7857 57.3995 19.7857 57.4362C19.7857 57.473 19.7857 57.5097 19.7857 57.5463C19.7857 57.5829 19.7857 57.6194 19.7857 57.6558C19.7857 57.6923 19.7857 57.7287 19.7857 57.765C19.7857 57.8013 19.7857 57.8376 19.7857 57.8737C19.7857 57.9099 19.7857 57.946 19.7857 57.982C19.7857 58.018 19.7857 58.054 19.7857 58.0899C19.7857 58.1257 19.7857 58.1615 19.7857 58.1973C19.7857 58.233 19.7857 58.2687 19.7857 58.3042C19.7857 58.3398 19.7857 58.3753 19.7857 58.4107C19.7857 58.4462 19.7857 58.4815 19.7857 58.5168C19.7857 58.5521 19.7857 58.5873 19.7857 58.6224C19.7857 58.6575 19.7857 58.6926 19.7857 58.7276C19.7857 58.7625 19.7857 58.7974 19.7857 58.8322C19.7857 58.8671 19.7857 58.9018 19.7857 58.9365C19.7857 58.9711 19.7857 59.0057 19.7857 59.0402C19.7857 59.0747 19.7857 59.1092 19.7857 59.1435C19.7857 59.1779 19.7857 59.2121 19.7857 59.2463C19.7857 59.2805 19.7857 59.3146 19.7857 59.3486C19.7857 59.3827 19.7857 59.4166 19.7857 59.4505C19.7857 59.4844 19.7857 59.5182 19.7857 59.5519C19.7857 59.5856 19.7857 59.6192 19.7857 59.6528C19.7857 59.6863 19.7857 59.7198 19.7857 59.7531C19.7857 59.7865 19.7857 59.8198 19.7857 59.853C19.7857 59.8863 19.7857 59.9194 19.7857 59.9525C19.7857 59.9855 19.7857 60.0185 19.7857 60.0514C19.7857 60.0842 19.7857 60.117 19.7857 60.1498C19.7857 60.1825 19.7857 60.2151 19.7857 60.2477C19.7857 60.2802 19.7857 60.3127 19.7857 60.3451C19.7857 60.3774 19.7857 60.4097 19.7857 60.4419C19.7857 60.4741 19.7857 60.5063 19.7857 60.5383C19.7857 60.5703 19.7857 60.6023 19.7857 60.6342C19.7857 60.666 19.7857 60.6978 19.7857 60.7295C19.7857 60.7612 19.7857 60.7928 19.7857 60.8243C19.7857 60.8558 19.7857 60.8872 19.7857 60.9186C19.7857 60.9499 19.7857 60.9811 19.7857 61.0123C19.7857 61.0435 19.7857 61.0745 19.7857 61.1055C19.7857 61.1365 19.7857 61.1674 19.7857 61.1982C19.7857 61.229 19.7857 61.2597 19.7857 61.2903C19.7857 61.321 19.7857 61.3515 19.7857 61.3819C19.7857 61.4124 19.7857 61.4427 19.7857 61.473C19.7857 61.5032 19.7857 61.5334 19.7857 61.5635C19.7857 61.5936 19.7857 61.6235 19.7857 61.6534C19.7857 61.6833 19.7857 61.7131 19.7857 61.7428C19.7857 61.7725 19.7857 61.8022 19.7857 61.8317C19.7857 61.8612 19.7857 61.8906 19.7857 61.9199C19.7857 61.9493 19.7857 61.9785 19.7857 62.0077C19.7857 62.0368 19.7857 62.0658 19.7857 62.0948C19.7857 62.1238 19.7857 62.1526 19.7857 62.1814C19.7857 62.2101 19.7857 62.2388 19.7857 62.2674C19.7857 62.2959 19.7857 62.3244 19.7857 62.3528C19.7857 62.3812 19.7857 62.4095 19.7857 62.4376C19.7857 62.4658 19.7857 62.4939 19.7857 62.5219C19.7857 62.5499 19.7857 62.5778 19.7857 62.6056C19.7857 62.6334 19.7857 62.6611 19.7857 62.6887C19.7857 62.7163 19.7857 62.7438 19.7857 62.7711C19.7857 62.7985 19.7857 62.8258 19.7857 62.853C19.7857 62.8802 19.7857 62.9073 19.7857 62.9343C19.7857 62.9613 19.7857 62.9882 19.7857 63.015C19.7857 63.0418 19.7857 63.0685 19.7857 63.0951C19.7857 63.1217 19.7857 63.1482 19.7857 63.1746C19.7857 63.201 19.7857 63.2273 19.7857 63.2535C19.7857 63.2797 19.7857 63.3058 19.7857 63.3317C19.7857 63.3577 19.7857 63.3836 19.7857 63.4094C19.7857 63.4352 19.7857 63.4608 19.7857 63.4864C19.7857 63.512 19.7857 63.5374 19.7857 63.5628C19.7857 63.5881 19.7857 63.6134 19.7857 63.6386C19.7857 63.6637 19.7857 63.6888 19.7857 63.7137C19.7857 63.7386 19.7857 63.7635 19.7857 63.7882C19.7857 63.8129 19.7857 63.8376 19.7857 63.8621C19.7857 63.8866 19.7857 63.911 19.7857 63.9353C19.7857 63.9596 19.7857 63.9838 19.7857 64.0079C19.7857 64.032 19.7857 64.056 19.7857 64.0798C19.7857 64.1037 19.7857 64.1275 19.7857 64.1511C19.7857 64.1748 19.7857 64.1983 19.7857 64.2218C19.7857 64.2452 19.7857 64.2685 19.7857 64.2917C19.7857 64.315 19.7857 64.3381 19.7857 64.3611C19.7857 64.3841 19.7857 64.407 19.7857 64.4297C19.7857 64.4525 19.7857 64.4752 19.7857 64.4977H24.7857Z" fill="url(#paint1_linear_376_213)"/>
<path d="M26.1429 90.4285H31.2857" stroke="url(#paint2_linear_376_213)" stroke-width="5" stroke-linecap="round" stroke-linejoin="round"/>
<path d="M42.8571 90.4285C43.9094 88.7143 45.4401 85.5882 48.023 85.5882C50.6059 85.5882 50.6059 90.4285 54.0497 90.4285C57.4936 90.4285 55.4847 80.1428 60.3635 80.1428C65.2423 80.1428 65.2423 90.4285 70.4082 90.4285C73.3929 90.4285 74.713 88.6134 75 87.7058" stroke="url(#paint3_linear_376_213)" stroke-width="5" stroke-linecap="round" stroke-linejoin="round"/>
<defs>
<linearGradient id="paint0_linear_376_213" x1="26.7857" y1="14.5715" x2="26.7857" y2="46.7144" gradientUnits="userSpaceOnUse">
<stop stop-color="white" stop-opacity="0.5"/>
<stop offset="1" stop-color="white" stop-opacity="0"/>
</linearGradient>
<linearGradient id="paint1_linear_376_213" x1="12.6429" y1="3" x2="12.6429" y2="85.2857" gradientUnits="userSpaceOnUse">
<stop stop-color="white" stop-opacity="0.5"/>
<stop offset="1" stop-color="white" stop-opacity="0"/>
</linearGradient>
<linearGradient id="paint2_linear_376_213" x1="28.7143" y1="90.4285" x2="28.7143" y2="99.5" gradientUnits="userSpaceOnUse">
<stop stop-color="white" stop-opacity="0.5"/>
<stop offset="1" stop-color="white" stop-opacity="0"/>
</linearGradient>
<linearGradient id="paint3_linear_376_213" x1="58.9286" y1="80.1428" x2="59" y2="101" gradientUnits="userSpaceOnUse">
<stop stop-color="white" stop-opacity="0.5"/>
<stop offset="1" stop-color="white" stop-opacity="0"/>
</linearGradient>
</defs>
</svg>
