<svg width="118" height="130" viewBox="0 0 118 130" fill="none" xmlns="http://www.w3.org/2000/svg">
<path fill-rule="evenodd" clip-rule="evenodd" d="M10.2526 27.9256C9.32828 27.9256 8.57895 28.669 8.57895 29.5861V127H3V29.5861C3 25.6122 6.24711 22.3907 10.2526 22.3907H89.4737C93.4792 22.3907 96.7263 25.6122 96.7263 29.5861V127H91.1474V29.5861C91.1474 28.669 90.398 27.9256 89.4737 27.9256H10.2526Z" stroke="url(#paint0_linear_368_345)" stroke-width="6"/>
<path fill-rule="evenodd" clip-rule="evenodd" d="M28.5263 8.53488C27.602 8.53488 26.8526 9.2783 26.8526 10.1953V10.5H21.2737V10.1953C21.2737 6.22147 24.5208 3 28.5263 3H107.747C111.753 3 115 6.22147 115 10.1953V107.609H109.421V10.1953C109.421 9.2783 108.672 8.53488 107.747 8.53488H28.5263Z" stroke="url(#paint1_linear_368_345)" stroke-width="6"/>
<defs>
<linearGradient id="paint0_linear_368_345" x1="49.8632" y1="22.3907" x2="49.8632" y2="127" gradientUnits="userSpaceOnUse">
<stop stop-color="white" stop-opacity="0.5"/>
<stop offset="0.763542" stop-color="white" stop-opacity="0"/>
</linearGradient>
<linearGradient id="paint1_linear_368_345" x1="68.1368" y1="3" x2="68.1368" y2="107.609" gradientUnits="userSpaceOnUse">
<stop stop-color="white" stop-opacity="0.5"/>
<stop offset="0.794792" stop-color="white" stop-opacity="0"/>
</linearGradient>
</defs>
</svg>
