<svg width="85" height="117" viewBox="0 0 85 117" fill="none" xmlns="http://www.w3.org/2000/svg">
<path d="M48.0945 82.0672C48.0894 82.0627 48.0844 82.0583 48.0793 82.0539C48.0694 82.0452 48.0594 82.0366 48.0494 82.028C44.8486 79.2798 39.9652 79.3347 36.8272 82.136L5 110.104V5L80 5V110.104L48.1564 82.1216L48.1562 82.1215L48.1561 82.1213L48.1559 82.1212L48.1557 82.121L48.1555 82.1209L48.1553 82.1207L48.1552 82.1205L48.155 82.1204L48.1548 82.1202L48.1547 82.1201L48.1546 82.1201L48.1545 82.1199L48.1543 82.1198L48.1541 82.1196L48.154 82.1195L48.1538 82.1193L48.1536 82.1192L48.1534 82.119L48.1533 82.1189L48.1531 82.1187L48.1529 82.1186L48.1528 82.1184L48.1526 82.1183L48.1524 82.1181L48.1523 82.118L48.1521 82.1178L48.1519 82.1177L48.1518 82.1176L48.1516 82.1174L48.1515 82.1173L48.1513 82.1171L48.1511 82.117L48.151 82.1168L48.1508 82.1167L48.1506 82.1166L48.1505 82.1164L48.1503 82.1163L48.1502 82.1161L48.15 82.116L48.1499 82.1159L48.1497 82.1157L48.1495 82.1156L48.1494 82.1155L48.1492 82.1153L48.1491 82.1152L48.1489 82.1151L48.1488 82.1149L48.1486 82.1148L48.1485 82.1147L48.1483 82.1145L48.1482 82.1144L48.148 82.1143L48.1479 82.1141L48.1477 82.114L48.1476 82.1139L48.1474 82.1137L48.1473 82.1136L48.1471 82.1135L48.147 82.1134L48.1469 82.1132L48.1467 82.1131L48.1466 82.113L48.1464 82.1128L48.1463 82.1127L48.1461 82.1126L48.146 82.1125L48.1459 82.1124L48.1457 82.1122L48.1456 82.1121L48.1454 82.112L48.1453 82.1119L48.1452 82.1117L48.145 82.1116L48.1449 82.1115L48.1447 82.1114L48.1446 82.1113L48.1445 82.1111L48.1443 82.111L48.1442 82.1109L48.1441 82.1108L48.1439 82.1107L48.1438 82.1105L48.1437 82.1104L48.1435 82.1103L48.1434 82.1102L48.1433 82.1101L48.1431 82.11L48.143 82.1098L48.1429 82.1097L48.1428 82.1096L48.1426 82.1095L48.1425 82.1094L48.1424 82.1093L48.1422 82.1092L48.1421 82.1091L48.142 82.1089L48.1419 82.1088L48.1417 82.1087L48.1416 82.1086L48.1415 82.1085L48.1414 82.1084L48.1412 82.1083L48.1411 82.1082L48.141 82.1081L48.1409 82.108L48.1407 82.1078L48.1406 82.1077L48.1405 82.1076L48.1404 82.1075L48.1403 82.1074L48.1401 82.1073L48.14 82.1072L48.1399 82.1071L48.1398 82.107L48.1397 82.1069L48.1395 82.1068L48.1394 82.1067L48.1393 82.1066L48.1392 82.1065L48.1391 82.1064L48.139 82.1063L48.1388 82.1062L48.1387 82.1061L48.1386 82.106L48.1385 82.1059L48.1384 82.1058L48.1383 82.1057L48.1381 82.1056L48.138 82.1055L48.1379 82.1054L48.1378 82.1053L48.1377 82.1052L48.1376 82.1051L48.1375 82.105L48.1374 82.1049L48.1372 82.1048L48.1371 82.1047L48.137 82.1046L48.1369 82.1045L48.1368 82.1044L48.1367 82.1043L48.1366 82.1042L48.1365 82.1041L48.1364 82.104L48.1363 82.1039L48.1362 82.1038L48.136 82.1037L48.1359 82.1036L48.1358 82.1035L48.1357 82.1034L48.1356 82.1033L48.1355 82.1032L48.1354 82.1032L48.1353 82.1031L48.1352 82.103L48.1351 82.1029L48.135 82.1028L48.1349 82.1027L48.1348 82.1026L48.1347 82.1025L48.1346 82.1024L48.1345 82.1023L48.1344 82.1022L48.1343 82.1021L48.1342 82.1021L48.1341 82.102L48.134 82.1019L48.1339 82.1018L48.1338 82.1017L48.1337 82.1016L48.1335 82.1015L48.1334 82.1014L48.1333 82.1013L48.1332 82.1013L48.1331 82.1012L48.133 82.1011L48.1329 82.101L48.1328 82.1009L48.1327 82.1008L48.1326 82.1007L48.1325 82.1006L48.1325 82.1006L48.1324 82.1005L48.1323 82.1004L48.1322 82.1003L48.1321 82.1002L48.132 82.1001L48.1319 82.1L48.1318 82.1L48.1317 82.0999L48.1316 82.0998L48.1315 82.0997L48.1314 82.0996L48.1313 82.0995L48.1312 82.0994L48.1311 82.0994L48.131 82.0993L48.1309 82.0992L48.1308 82.0991L48.1307 82.099L48.1306 82.0989L48.1305 82.0989L48.1304 82.0988L48.1303 82.0987L48.1302 82.0986L48.1301 82.0985L48.13 82.0984L48.13 82.0984L48.1299 82.0983L48.1298 82.0982L48.1297 82.0981L48.1296 82.098L48.1295 82.0979L48.1294 82.0979L48.1293 82.0978L48.1292 82.0977L48.1291 82.0976L48.129 82.0975L48.1289 82.0975L48.1288 82.0974L48.1287 82.0973L48.1286 82.0972L48.1286 82.0971L48.1285 82.097L48.1284 82.097L48.1283 82.0969L48.1282 82.0968L48.1281 82.0967L48.128 82.0966L48.1279 82.0966L48.1278 82.0965L48.1277 82.0964L48.1276 82.0963L48.1275 82.0962L48.1275 82.0962L48.1274 82.0961L48.1273 82.096L48.1272 82.0959L48.1271 82.0958L48.127 82.0958L48.1269 82.0957L48.1268 82.0956L48.1267 82.0955L48.1266 82.0954L48.1265 82.0954L48.1264 82.0953L48.1264 82.0952L48.1263 82.0951L48.1262 82.095L48.1261 82.095L48.126 82.0949L48.1259 82.0948L48.1258 82.0947L48.1257 82.0946L48.1256 82.0946L48.1255 82.0945L48.1255 82.0944L48.1254 82.0943L48.1253 82.0942L48.1252 82.0942L48.1251 82.0941L48.125 82.094L48.1249 82.0939L48.1248 82.0938L48.1247 82.0938L48.1246 82.0937L48.1245 82.0936L48.1245 82.0935L48.1244 82.0934L48.1243 82.0934L48.1242 82.0933L48.1241 82.0932L48.124 82.0931L48.1239 82.093L48.1238 82.093L48.1237 82.0929L48.1236 82.0928L48.1235 82.0927L48.1235 82.0926L48.1234 82.0926L48.1233 82.0925L48.1232 82.0924L48.1231 82.0923L48.123 82.0922L48.1229 82.0922L48.1228 82.0921L48.1227 82.092L48.1226 82.0919L48.1225 82.0918L48.1224 82.0918L48.1223 82.0917L48.1223 82.0916L48.1222 82.0915L48.1221 82.0914L48.122 82.0913L48.1219 82.0913L48.1218 82.0912L48.1217 82.0911L48.1216 82.091L48.1215 82.0909L48.1214 82.0909L48.1213 82.0908L48.1212 82.0907L48.1211 82.0906L48.121 82.0905L48.1209 82.0904L48.1209 82.0904L48.1208 82.0903L48.1207 82.0902L48.1206 82.0901L48.1205 82.09L48.1204 82.0899L48.1203 82.0899L48.1202 82.0898L48.1201 82.0897L48.12 82.0896L48.1199 82.0895L48.1198 82.0894L48.1197 82.0894L48.1196 82.0893L48.1195 82.0892L48.1194 82.0891L48.1193 82.089L48.1192 82.0889L48.1191 82.0888L48.119 82.0888L48.1189 82.0887L48.1188 82.0886L48.1187 82.0885L48.1186 82.0884L48.1185 82.0883L48.1185 82.0882L48.1184 82.0882L48.1183 82.0881L48.1182 82.088L48.1181 82.0879L48.118 82.0878L48.1179 82.0877L48.1178 82.0876L48.1177 82.0875L48.1176 82.0875L48.1175 82.0874L48.1174 82.0873L48.1173 82.0872L48.1171 82.0871L48.1171 82.087L48.1169 82.0869L48.1168 82.0868L48.1167 82.0867L48.1166 82.0866L48.1165 82.0866L48.1164 82.0865L48.1163 82.0864L48.1162 82.0863L48.1161 82.0862L48.116 82.0861L48.1159 82.086L48.1158 82.0859L48.1157 82.0858L48.1156 82.0857L48.1155 82.0856L48.1154 82.0855L48.1153 82.0855L48.1152 82.0854L48.1151 82.0853L48.115 82.0852L48.1149 82.0851L48.1147 82.085L48.1146 82.0849L48.1145 82.0848L48.1144 82.0847L48.1143 82.0846L48.1142 82.0845L48.1141 82.0844L48.114 82.0843L48.1139 82.0842L48.1138 82.0841L48.1137 82.084L48.1135 82.0839L48.1134 82.0838L48.1133 82.0837L48.1132 82.0836L48.1131 82.0835L48.113 82.0834L48.1129 82.0833L48.1128 82.0832L48.1126 82.0831L48.1125 82.083L48.1124 82.0829L48.1123 82.0828L48.1122 82.0827L48.1121 82.0826L48.1119 82.0825L48.1118 82.0824L48.1117 82.0823L48.1116 82.0822L48.1115 82.0821L48.1114 82.082L48.1112 82.0819L48.1111 82.0818L48.111 82.0817L48.1109 82.0816L48.1108 82.0815L48.1106 82.0814L48.1105 82.0813L48.1104 82.0812L48.1103 82.0811L48.1102 82.0809L48.11 82.0808L48.1099 82.0807L48.1098 82.0806L48.1097 82.0805L48.1095 82.0804L48.1094 82.0803L48.1093 82.0802L48.1092 82.0801L48.109 82.08L48.1089 82.0799L48.1088 82.0797L48.1087 82.0796L48.1085 82.0795L48.1084 82.0794L48.1083 82.0793L48.1081 82.0792L48.108 82.0791L48.1079 82.0789L48.1078 82.0788L48.1076 82.0787L48.1075 82.0786L48.1074 82.0785L48.1072 82.0784L48.1071 82.0783L48.107 82.0781L48.1068 82.078L48.1067 82.0779L48.1066 82.0778L48.1064 82.0777L48.1063 82.0775L48.1062 82.0774L48.106 82.0773L48.1059 82.0772L48.1057 82.0771L48.1056 82.0769L48.1055 82.0768L48.1053 82.0767L48.1052 82.0766L48.105 82.0764L48.1049 82.0763L48.1048 82.0762L48.1046 82.0761L48.1045 82.076L48.1043 82.0758L48.1042 82.0757L48.104 82.0756L48.1039 82.0754L48.1038 82.0753L48.1036 82.0752L48.1035 82.0751L48.1033 82.0749L48.1032 82.0748L48.103 82.0747L48.1029 82.0745L48.1027 82.0744L48.1026 82.0743L48.1024 82.0741L48.1023 82.074L48.1021 82.0739L48.102 82.0737L48.1018 82.0736L48.1017 82.0735L48.1015 82.0733L48.1014 82.0732L48.1012 82.0731L48.101 82.0729L48.1009 82.0728L48.1007 82.0727L48.1006 82.0725L48.1004 82.0724L48.1003 82.0722L48.1001 82.0721L48.0999 82.072L48.0998 82.0718L48.0996 82.0717L48.0995 82.0715L48.0993 82.0714L48.0991 82.0712L48.099 82.0711L48.0988 82.071L48.0986 82.0708L48.0985 82.0707L48.0983 82.0705L48.0981 82.0704L48.098 82.0702L48.0978 82.0701L48.0976 82.0699L48.0975 82.0698L48.0973 82.0696L48.0971 82.0695L48.0969 82.0693L48.0968 82.0692L48.0966 82.069L48.0964 82.0689L48.0963 82.0687L48.0961 82.0686L48.0959 82.0684L48.0957 82.0683L48.0956 82.0681L48.0954 82.0679L48.0952 82.0678L48.095 82.0676L48.0948 82.0675L48.0947 82.0673L48.0945 82.0672ZM2.42854 112.363C2.42941 112.363 2.43029 112.362 2.43116 112.361L2.43022 112.362L2.42854 112.363Z" stroke="url(#paint0_linear_31_726)" stroke-width="10" stroke-linejoin="round"/>
<defs>
<linearGradient id="paint0_linear_31_726" x1="42.5" y1="0" x2="42.5" y2="117" gradientUnits="userSpaceOnUse">
<stop stop-color="white" stop-opacity="0.5"/>
<stop offset="0.336458" stop-color="white" stop-opacity="0.5"/>
<stop offset="1" stop-color="white" stop-opacity="0"/>
</linearGradient>
</defs>
</svg>
