<svg width="77" height="85" viewBox="0 0 77 85" fill="none" xmlns="http://www.w3.org/2000/svg">
<path d="M45.0199 16.873C45.198 18.2422 46.4523 19.2078 47.8214 19.0297C49.1906 18.8516 50.1562 17.5973 49.9781 16.2281L45.0199 16.873ZM26.2865 33.0828C26.1944 34.4604 27.2365 35.6519 28.6142 35.744C29.9918 35.8361 31.1833 34.794 31.2754 33.4163L26.2865 33.0828ZM31.2809 48.6019C31.2809 47.2212 30.1616 46.1019 28.7809 46.1019C27.4002 46.1019 26.2809 47.2212 26.2809 48.6019H31.2809ZM49.999 68.533C49.999 67.1523 48.8797 66.033 47.499 66.033C46.1183 66.033 44.999 67.1523 44.999 68.533H49.999ZM20.0648 64.9329C21.349 64.4258 21.9791 62.9737 21.472 61.6895C20.965 60.4052 19.5128 59.7752 18.2286 60.2822L20.0648 64.9329ZM3.45657 62.6076L5.6402 61.3903L5.6402 61.3903L3.45657 62.6076ZM32.0842 33.2495L31.0001 30.9968L32.0842 33.2495ZM61.0911 36.8824C59.8249 37.433 59.2448 38.9058 59.7955 40.172C60.3461 41.4382 61.8189 42.0182 63.0851 41.4676L61.0911 36.8824ZM17.7188 20.2186C18.8522 21.0072 20.4102 20.7277 21.1988 19.5944C21.9874 18.461 21.7079 16.903 20.5746 16.1144L17.7188 20.2186ZM18.0456 41.9013L19.5602 43.8903L18.0456 41.9013ZM48.6946 33.7474C47.482 33.0871 45.9637 33.5348 45.3034 34.7474C44.6431 35.9599 45.0908 37.4782 46.3034 38.1385L48.6946 33.7474ZM38.14 54.258L36.8497 52.1167C36.0773 52.5821 35.6154 53.4275 35.641 54.3289C35.6665 55.2304 36.1756 56.0482 36.9732 56.4691L38.14 54.258ZM53.2874 48.0498C54.4701 47.3373 54.8511 45.8009 54.1385 44.6183C53.426 43.4356 51.8896 43.0546 50.707 43.7672L53.2874 48.0498ZM49.9781 16.2281C49.6345 13.5863 48.7225 9.63429 47.0211 6.39801C45.4023 3.31877 42.4036 -0.229712 37.6942 0.623622L38.5857 5.54351C39.822 5.31948 41.1817 6.03554 42.5954 8.72466C43.9266 11.2567 44.7212 14.5769 45.0199 16.873L49.9781 16.2281ZM37.6942 0.623622C34.9679 1.11763 33.1943 3.52908 32.0413 5.74776C30.8009 8.13446 29.8204 11.1931 29.0431 14.3748C27.4815 20.7664 26.6135 28.1916 26.2865 33.0828L31.2754 33.4163C31.5906 28.701 32.4293 21.5819 33.9002 15.5615C34.6391 12.5372 35.5064 9.92287 36.4779 8.05345C37.5367 6.01601 38.3392 5.58818 38.5857 5.54351L37.6942 0.623622ZM26.2809 48.6019C26.2809 54.328 27.0297 62.86 28.6099 70.0148C29.396 73.5745 30.4218 76.9541 31.7501 79.5025C32.9619 81.8277 34.9772 84.5 38.14 84.5V79.5C38.0902 79.5 37.3293 79.3891 36.184 77.1916C35.155 75.2174 34.2427 72.3348 33.4922 68.9366C31.9991 62.1756 31.2809 54.0085 31.2809 48.6019H26.2809ZM38.14 84.5C42.6936 84.5 45.6996 81.2947 47.4215 78.1508C49.1614 74.9741 49.999 71.194 49.999 68.533H44.999C44.999 70.3611 44.3696 73.3144 43.0362 75.749C41.6849 78.2163 40.0114 79.5 38.14 79.5V84.5ZM18.2286 60.2822C15.3465 61.4201 12.6757 62.7142 10.1625 63.1389C8.9748 63.3396 8.0815 63.2867 7.41453 63.0461C6.81512 62.8298 6.1995 62.3936 5.6402 61.3903L1.27294 63.8248C2.36523 65.7843 3.88291 67.0875 5.71788 67.7494C7.48528 68.387 9.32744 68.3509 10.9956 68.069C14.1942 67.5285 17.7168 65.8599 20.0648 64.9329L18.2286 60.2822ZM33.1682 35.5023C41.5842 31.4524 50.6921 27.2238 58.1524 24.8962C61.9022 23.7262 65.0309 23.1043 67.3512 23.1366C69.6971 23.1693 70.5508 23.8305 70.9016 24.4767L75.2958 22.0913C73.6728 19.1013 70.5117 18.1802 67.4209 18.1371C64.3045 18.0937 60.5746 18.9027 56.6631 20.1231C48.8008 22.5762 39.3753 26.9665 31.0001 30.9968L33.1682 35.5023ZM70.9016 24.4767C71.569 25.7063 71.6245 26.805 71.3311 27.865C71.0163 29.002 70.2601 30.213 69.1102 31.4363C66.7941 33.9002 63.382 35.8861 61.0911 36.8824L63.0851 41.4676C65.7489 40.3092 69.816 37.9857 72.7534 34.8608C74.2302 33.2897 75.5444 31.3864 76.1499 29.1988C76.7767 26.9341 76.6022 24.4978 75.2958 22.0913L70.9016 24.4767ZM20.5746 16.1144C17.9128 14.2623 13.7744 13.4012 10.072 13.9124C6.29236 14.4342 2.25606 16.5369 1.03438 21.3184L5.87876 22.5561C6.41877 20.4426 8.16304 19.2234 10.7558 18.8654C13.4258 18.4967 16.2516 19.1978 17.7188 20.2186L20.5746 16.1144ZM5.6402 61.3903C5.51892 61.1727 5.36118 60.6163 5.7256 59.4247C6.08479 58.2503 6.86701 56.7655 8.11678 55.0402C10.6058 51.604 14.637 47.6392 19.5602 43.8903L16.5311 39.9123C11.3559 43.853 6.92983 48.1555 4.06749 52.107C2.64157 54.0756 1.52461 56.0647 0.944232 57.9624C0.369095 59.8429 0.23141 61.9565 1.27294 63.8248L5.6402 61.3903ZM19.5602 43.8903C23.6837 40.7503 28.365 37.8136 33.1682 35.5023L31.0001 30.9968C25.8648 33.468 20.897 36.5877 16.5311 39.9123L19.5602 43.8903ZM1.03438 21.3184C0.405036 23.7816 0.942614 26.2567 1.92294 28.4528C2.90687 30.657 4.42777 32.7913 6.10209 34.7238C9.45141 38.5897 13.7211 41.9965 16.646 43.9728L19.4453 39.8298C16.7731 38.0243 12.8674 34.8967 9.88106 31.4498C8.38753 29.7259 7.20051 28.0093 6.48869 26.4147C5.77326 24.812 5.62726 23.5405 5.87876 22.5561L1.03438 21.3184ZM46.3034 38.1385C51.4893 40.9624 58.9252 45.6414 64.4208 50.4785C67.1874 52.9137 69.3024 55.2515 70.446 57.2906C71.5962 59.3414 71.4779 60.5052 70.9953 61.2563L75.2021 63.9588C77.1419 60.9392 76.3537 57.6027 74.8069 54.8447C73.2535 52.075 70.6442 49.2954 67.7243 46.7253C61.8468 41.552 54.0605 36.6693 48.6946 33.7474L46.3034 38.1385ZM70.9953 61.2563C70.8547 61.4753 70.5335 61.7794 69.6611 61.974C68.7635 62.1744 67.5064 62.2003 65.8965 62.0031C62.6856 61.6098 58.6851 60.4118 54.6753 58.9181C50.6982 57.4366 46.8522 55.7178 43.9904 54.3635C42.5624 53.6876 41.3859 53.1056 40.5686 52.6936C40.16 52.4877 39.8416 52.3245 39.6267 52.2135C39.5193 52.158 39.4378 52.1156 39.3839 52.0874C39.3569 52.0734 39.3369 52.0628 39.3239 52.0561C39.3175 52.0527 39.3128 52.0502 39.3099 52.0487C39.3085 52.0479 39.3075 52.0474 39.3069 52.0471C39.3067 52.047 39.3066 52.0469 39.3065 52.0469C39.3065 52.0469 39.3067 52.047 38.14 54.258C36.9732 56.4691 36.9736 56.4693 36.9741 56.4695C36.9744 56.4697 36.9751 56.47 36.9757 56.4704C36.977 56.4711 36.9788 56.472 36.981 56.4732C36.9854 56.4755 36.9916 56.4788 36.9996 56.483C37.0157 56.4914 37.0389 56.5036 37.0691 56.5193C37.1294 56.5509 37.2176 56.5967 37.3319 56.6558C37.5606 56.7739 37.8938 56.9447 38.3182 57.1586C39.1667 57.5862 40.3807 58.1868 41.8515 58.8829C44.7875 60.2724 48.7728 62.055 52.9299 63.6036C57.0541 65.1399 61.4906 66.5007 65.2886 66.966C67.1832 67.198 69.0736 67.2281 70.7501 66.854C72.4519 66.4742 74.1315 65.6252 75.2021 63.9588L70.9953 61.2563ZM39.4302 56.3994L53.2874 48.0498L50.707 43.7672L36.8497 52.1167L39.4302 56.3994Z" fill="url(#paint0_linear_370_131)"/>
<defs>
<linearGradient id="paint0_linear_370_131" x1="38.5" y1="3" x2="38.5" y2="82" gradientUnits="userSpaceOnUse">
<stop stop-color="white" stop-opacity="0.5"/>
<stop offset="1" stop-color="white" stop-opacity="0"/>
</linearGradient>
</defs>
</svg>
