<svg width="79" height="94" viewBox="0 0 79 94" fill="none" xmlns="http://www.w3.org/2000/svg">
<path d="M62.4738 80.1233L68.7596 91.0026" stroke="url(#paint0_linear_376_198)" stroke-width="5" stroke-linecap="round" stroke-linejoin="round"/>
<path d="M24.8194 5.87654C23.6467 5.14783 22.1052 5.50781 21.3765 6.68057C20.6478 7.85332 21.0078 9.39476 22.1806 10.1235L24.8194 5.87654ZM7.35655 69.4709L5.16574 70.6752L7.57435 75.0568L9.76516 73.8525L7.35655 69.4709ZM22.1806 10.1235C26.2326 12.6413 33.2015 17.536 39.1279 22.7584C42.0947 25.3728 44.7294 28.0077 46.6017 30.4178C48.5637 32.9434 49.3362 34.7823 49.3362 35.8809H54.3362C54.3362 32.9905 52.6043 29.9945 50.5502 27.3504C48.4064 24.5907 45.5134 21.721 42.4336 19.0071C36.2671 13.573 29.0679 8.51633 24.8194 5.87654L22.1806 10.1235ZM49.3362 35.8809C49.3362 35.8844 49.3363 35.8778 49.3362 35.8815C49.3362 35.8853 49.3363 35.8792 49.3362 35.8831C49.3361 35.8846 49.336 35.8868 49.3358 35.8898C49.3355 35.8957 49.3347 35.9046 49.3333 35.9164C49.3303 35.9404 49.3247 35.9752 49.314 36.0218C49.2924 36.1165 49.2528 36.2474 49.1841 36.4172C49.0443 36.7629 48.8101 37.205 48.4541 37.7455C47.739 38.8312 46.6488 40.1394 45.2126 41.629C42.3475 44.6006 38.3321 48.0626 33.825 51.5914C24.8114 58.6485 14.1052 65.7611 7.35655 69.4709L9.76516 73.8525C16.7969 69.9871 27.7284 62.7149 36.9074 55.5282C41.4966 51.9351 45.7162 48.3104 48.812 45.0994C50.3563 43.4978 51.678 41.9407 52.6297 40.4958C53.526 39.135 54.3362 37.5198 54.3362 35.8809H49.3362Z" fill="url(#paint1_linear_376_198)"/>
<path d="M52.3198 68.0348C55.9462 66.826 64.6496 67.5513 64.6496 67.5513C93.1776 19.1994 60.6203 2.84 42.1658 3.00118C24.7589 3.00118 3.00031 18.2323 3.00031 41.4415C3.00031 60.0088 8.39966 71.1777 10.7367 76.7382C10.7367 76.7382 13.1543 84.4746 19.6819 84.4746C26.2095 84.4746 48.6933 69.2436 52.3198 68.0348Z" stroke="url(#paint2_linear_376_198)" stroke-width="5" stroke-linecap="round" stroke-linejoin="round"/>
<defs>
<linearGradient id="paint0_linear_376_198" x1="65.6167" y1="80.1233" x2="65.6167" y2="91.0026" gradientUnits="userSpaceOnUse">
<stop stop-color="white" stop-opacity="0.5"/>
<stop offset="1" stop-color="white" stop-opacity="0"/>
</linearGradient>
<linearGradient id="paint1_linear_376_198" x1="70.5" y1="46" x2="32.5" y2="-10" gradientUnits="userSpaceOnUse">
<stop stop-color="white" stop-opacity="0.5"/>
<stop offset="1" stop-color="white" stop-opacity="0"/>
</linearGradient>
<linearGradient id="paint2_linear_376_198" x1="39.4488" y1="3" x2="39.4488" y2="84.4746" gradientUnits="userSpaceOnUse">
<stop stop-color="white" stop-opacity="0.5"/>
<stop offset="1" stop-color="white" stop-opacity="0"/>
</linearGradient>
</defs>
</svg>
