<svg width="96" height="96" viewBox="0 0 96 96" fill="none" xmlns="http://www.w3.org/2000/svg">
<path fill-rule="evenodd" clip-rule="evenodd" d="M62.0907 0.121496C64.7857 0.72389 66.482 3.39689 65.8796 6.09181L46.8796 91.0918C46.2772 93.7867 43.6042 95.483 40.9093 94.8807C38.2144 94.2783 36.518 91.6053 37.1204 88.9103L56.1204 3.91035C56.7228 1.21543 59.3958 -0.480897 62.0907 0.121496ZM5 0.00107886C7.76142 0.00107839 10 2.23965 10 5.00108L10 90.0011C10 92.7625 7.76143 95.0011 5 95.0011C2.23858 95.0011 3.8147e-06 92.7625 3.8147e-06 90.0011L0 5.00108C0 2.23966 2.23858 0.00107886 5 0.00107886ZM24 0.00107886C26.7614 0.00107839 29 2.23965 29 5.00108L29 90.0011C29 92.7625 26.7614 95.0011 24 95.0011C21.2386 95.0011 19 92.7625 19 90.0011L19 5.00108C19 2.23966 21.2386 0.00107886 24 0.00107886ZM73 0.00107886C75.7614 0.00107886 78 2.23966 78 5.00108V90.0011C78 92.7625 75.7614 95.0011 73 95.0011C70.2386 95.0011 68 92.7625 68 90.0011V5.00108C68 2.23966 70.2386 0.00107886 73 0.00107886ZM91 0.00107886C93.7614 0.00107886 96 2.23966 96 5.00108V90.0011C96 92.7625 93.7614 95.0011 91 95.0011C88.2386 95.0011 86 92.7625 86 90.0011V5.00108C86 2.23966 88.2386 0.00107886 91 0.00107886Z" fill="url(#paint0_linear_368_337)"/>
<defs>
<linearGradient id="paint0_linear_368_337" x1="48" y1="0" x2="48" y2="95.0022" gradientUnits="userSpaceOnUse">
<stop stop-color="white" stop-opacity="0.5"/>
<stop offset="0.973786" stop-color="white" stop-opacity="0"/>
</linearGradient>
</defs>
</svg>
